<svg width="82" height="91" viewBox="0 0 82 91" fill="none" xmlns="http://www.w3.org/2000/svg">
<path d="M59.2569 52.986C58.94 54.309 58.5169 55.614 57.9894 56.8779C56.5722 60.2711 54.4342 63.3048 51.807 65.6486C49.4566 67.7456 48.0393 69.1954 45.9745 71.6142C42.2939 75.9245 41.3886 82.4622 43.7094 87.6645L43.7634 87.7825C43.7668 87.7897 43.7703 87.7986 43.7738 87.8058C36.1655 90.3873 27.7145 90.9254 19.8868 89.3236V87.223C19.8868 87.2176 19.8868 87.2105 19.8868 87.2051C19.7962 85.3012 19.4689 83.4544 18.9431 81.8633C18.0622 79.1978 16.6397 77.2152 14.7159 75.971C12.5988 74.5998 11.9999 74.4675 10.3946 74.1117C9.94369 74.0116 9.43182 73.8972 8.77545 73.7327C8.476 73.6576 8.17305 73.5861 7.87185 73.5146C6.64965 73.225 5.38565 72.9247 4.2592 72.3687C2.71316 71.6089 1.64764 70.4165 1.33251 69.0989C1.00694 67.7402 1.58148 66.2725 2.13687 64.8548C2.22044 64.6403 2.30401 64.4275 2.3841 64.2166C2.6557 63.4961 2.56865 62.6452 2.15777 61.998C2.05853 61.8425 1.9471 61.7048 1.83916 61.5743C1.71554 61.4224 1.59715 61.2776 1.51706 61.1256C1.336 60.7841 1.32903 60.3408 1.49965 59.994C1.66679 59.6543 2.12991 59.3236 2.51294 59.2699C2.69749 59.2449 2.83329 59.0804 2.83155 58.8909C2.82807 58.6996 2.68704 58.5423 2.50249 58.5209C2.16995 58.4851 1.85308 58.267 1.69639 57.9631C1.55189 57.6842 1.47876 57.3141 1.65983 57.1586C2.28834 56.6187 3.15016 55.8786 3.40609 54.8381C3.51055 54.4126 3.50011 54.0515 3.36953 53.5939C3.34515 53.5098 3.29292 53.4365 3.22154 53.3865C2.51816 52.9038 1.79041 52.4032 1.28899 51.7185C0.881586 51.1625 0.550789 50.2919 0.841542 49.5143C1.07136 48.8957 1.64242 48.4506 2.3075 47.9732C2.80892 47.6139 3.33471 47.2689 3.84483 46.9363C5.269 46.0049 6.74192 45.0413 7.84226 43.6237C8.72845 42.4813 9.21245 41.103 9.67905 39.7711C9.86534 39.2401 10.0586 38.6895 10.2727 38.1693C11.3417 35.5753 13.0932 33.3263 14.7873 31.1506C16.6467 28.764 20.181 26.4811 21.2204 25.8375C22.5053 25.0437 23.7136 24.4341 24.9062 23.9657C24.6938 23.8424 24.5823 23.5599 24.6102 23.2864C23.4002 23.7619 22.1518 24.3823 20.8426 25.1921C19.7771 25.8518 16.1488 28.1955 14.2145 30.6805C12.4891 32.8955 10.7063 35.1873 9.59722 37.8761C9.37437 38.416 9.17937 38.9738 8.98786 39.5154C8.51952 40.8491 8.0773 42.1077 7.26597 43.1535C6.24398 44.4728 4.88597 45.3596 3.44962 46.2999C2.93427 46.6378 2.40151 46.9864 1.88617 47.3547C1.26287 47.8034 0.48637 48.3594 0.155573 49.2443C-0.176966 50.1346 0.0319587 51.2573 0.702258 52.1726C1.24894 52.9181 2.00804 53.4598 2.69923 53.9353C2.76017 54.1981 2.75843 54.3966 2.69575 54.6522C2.51294 55.3959 1.90532 55.9662 1.18975 56.5794C0.752749 56.9548 0.697036 57.6377 1.04873 58.3171C1.16538 58.5423 1.32903 58.739 1.52403 58.8945C1.23328 59.0983 0.986048 59.3665 0.845024 59.6525C0.564716 60.2228 0.575163 60.9254 0.872881 61.4867C0.98953 61.7048 1.13578 61.8854 1.2768 62.0588C1.3743 62.1786 1.46832 62.293 1.54318 62.411C1.82871 62.8579 1.88791 63.4461 1.69987 63.9431C1.62153 64.1504 1.5397 64.3596 1.45613 64.5724C0.885068 66.0294 0.239143 67.6812 0.620431 69.2777C0.98779 70.8151 2.19781 72.1881 3.94233 73.048C5.14191 73.638 6.44594 73.949 7.70646 74.2476C8.00591 74.3191 8.30363 74.3888 8.60135 74.4639C9.26643 74.6302 9.80615 74.7499 10.2397 74.8465C11.7927 75.1915 12.3167 75.3077 14.3241 76.6074C15.9886 77.6854 18.8282 80.4993 19.1538 87.2319V88.8731L19.0859 89.9225L19.3975 89.9886C22.5714 90.6644 25.7958 91.0005 29.0185 91.0005C34.2277 91.0005 39.4334 90.1209 44.411 88.3779L44.8097 88.2384L44.4476 87.5054C42.1546 82.5409 42.9921 76.2445 46.5246 72.1095C48.5651 69.721 49.9649 68.2891 52.2857 66.2171C54.9948 63.7983 57.2007 60.6715 58.6614 57.1729C59.2168 55.8446 59.659 54.4734 59.9864 53.0826C59.7461 53.045 59.5023 53.0111 59.2569 52.986Z" fill="#768E9E"/>
<path d="M64.0167 25.0557C63.9749 25.3203 63.8617 25.5545 63.6998 25.7404C63.6998 25.7404 62.6534 26.9704 63.4874 27.108L66.7188 27.639L67.2358 24.3209C67.3699 23.4664 68.5677 24.539 68.5677 24.539C68.7488 24.7053 68.9769 24.8233 69.2346 24.8644C69.9519 24.9824 70.6256 24.4818 70.7388 23.7453C70.8537 23.0087 70.3662 22.3169 69.6489 22.2007C69.3912 22.1578 69.1388 22.1971 68.9159 22.2972C68.9159 22.2972 67.4517 22.9337 67.584 22.0791L68.1011 18.7611L64.8698 18.2301C64.0376 18.0925 65.0822 16.8625 65.0822 16.8625C65.2441 16.6766 65.359 16.4424 65.399 16.1778C65.514 15.4413 65.0265 14.7494 64.3092 14.6332C63.5918 14.5152 62.9181 15.0158 62.8049 15.7523C62.7631 16.0169 62.8014 16.2761 62.8989 16.505C62.8989 16.505 63.5187 18.0084 62.6865 17.8726L59.4551 17.3416L58.9381 20.6597C58.804 21.5142 60.2699 20.8778 60.2699 20.8778C60.4928 20.7776 60.7453 20.7383 61.0029 20.7812C61.7202 20.8992 62.2077 21.5911 62.0928 22.3258C61.9779 23.0624 61.3041 23.5629 60.5886 23.4449C60.3309 23.402 60.1028 23.2858 59.9217 23.1196C59.9217 23.1196 58.7239 22.0451 58.5898 22.9015L58.0728 26.2195L61.3041 26.7505C62.1363 26.8881 61.5165 25.3829 61.5165 25.3829C61.419 25.154 61.3807 24.8948 61.4225 24.6302C61.5374 23.8937 62.2112 23.3931 62.9268 23.5111C63.6441 23.6273 64.1316 24.3191 64.0167 25.0557Z" fill="#E7703D" fill-opacity="0.3" stroke="white" stroke-miterlimit="10"/>
<path d="M51.4691 39.9402C51.7302 39.9402 51.9722 40.0189 52.1777 40.1548C52.1777 40.1548 53.527 41.0218 53.527 40.1548V36.7956H50.2556C49.4111 36.7956 50.2556 35.4101 50.2556 35.4101C50.3861 35.2009 50.4645 34.9507 50.4645 34.6825C50.4645 33.937 49.876 33.3328 49.15 33.3328C48.424 33.3328 47.8355 33.937 47.8355 34.6825C47.8355 34.9507 47.9121 35.1992 48.0444 35.4101C48.0444 35.4101 48.8888 36.7956 48.0444 36.7956H44.773V40.1548C44.773 41.0218 43.4237 40.1548 43.4237 40.1548C43.22 40.0207 42.9763 39.9402 42.7151 39.9402C41.9891 39.9402 41.4006 40.5445 41.4006 41.29C41.4006 42.0355 41.9891 42.6397 42.7151 42.6397C42.9763 42.6397 43.2183 42.5611 43.4237 42.4252C43.4237 42.4252 44.773 41.5581 44.773 42.4252V45.7843H48.0444C48.8871 45.7843 48.0444 47.1698 48.0444 47.1698C47.9139 47.379 47.8355 47.6293 47.8355 47.8974C47.8355 48.6429 48.424 49.2472 49.15 49.2472C49.876 49.2472 50.4645 48.6429 50.4645 47.8974C50.4645 47.6293 50.3879 47.3808 50.2556 47.1698C50.2556 47.1698 49.4129 45.7861 50.2556 45.7843H53.527V42.4252C53.527 41.5581 52.1777 42.4252 52.1777 42.4252C51.974 42.5593 51.7302 42.6397 51.4691 42.6397C50.743 42.6397 50.1546 42.0355 50.1546 41.29C50.1546 40.5445 50.743 39.9402 51.4691 39.9402Z" fill="#E7703D" fill-opacity="0.8" stroke="white" stroke-miterlimit="10"/>
<path d="M32.9791 25.6905C32.9791 25.9587 32.9025 26.2072 32.7702 26.4181C32.7702 26.4181 31.9258 27.8036 32.7702 27.8036H36.0416V24.4445C36.0416 23.5774 37.3909 24.4445 37.3909 24.4445C37.5946 24.5786 37.8384 24.659 38.0995 24.659C38.8255 24.659 39.414 24.0547 39.414 23.3093C39.414 22.5638 38.8255 21.9595 38.0995 21.9595C37.8384 21.9595 37.5964 22.0382 37.3909 22.1741C37.3909 22.1741 36.0416 23.0411 36.0416 22.1741V18.8149H32.7702C31.9258 18.8149 32.7702 17.4294 32.7702 17.4294C32.9008 17.2202 32.9791 16.97 32.9791 16.7018C32.9791 15.9563 32.3907 15.3521 31.6646 15.3521C30.9386 15.3521 30.3502 15.9563 30.3502 16.7018C30.3502 16.97 30.4268 17.2184 30.5591 17.4294C30.5591 17.4294 31.4035 18.8149 30.5591 18.8149H27.2877V22.1741C27.2877 23.0393 25.9384 22.1741 25.9384 22.1741C25.7347 22.04 25.4909 21.9595 25.2298 21.9595C24.5038 21.9595 23.9153 22.5638 23.9153 23.3093C23.9153 24.0547 24.5038 24.659 25.2298 24.659C25.4909 24.659 25.7329 24.5803 25.9384 24.4445C25.9384 24.4445 27.2859 23.5792 27.2877 24.4445V27.8036H30.5591C31.4035 27.8036 30.5591 26.4181 30.5591 26.4181C30.4285 26.209 30.3502 25.9587 30.3502 25.6905C30.3502 24.945 30.9386 24.3408 31.6646 24.3408C32.3907 24.3408 32.9791 24.945 32.9791 25.6905Z" fill="#E7703D" fill-opacity="0.7" stroke="white" stroke-miterlimit="10"/>
<path d="M46.8293 30.9215C46.5681 30.9215 46.3261 31.0001 46.1207 31.136C46.1207 31.136 44.7713 32.0031 44.7713 31.136V27.7769H41.4999C40.6555 27.7769 41.4999 29.1624 41.4999 29.1624C41.6305 29.3715 41.7089 29.6218 41.7089 29.89C41.7089 30.6354 41.1204 31.2397 40.3944 31.2397C39.6684 31.2397 39.0799 30.6354 39.0799 29.89C39.0799 29.6218 39.1565 29.3733 39.2888 29.1624C39.2888 29.1624 40.1332 27.7769 39.2888 27.7769H36.0174V31.136C36.0174 32.0031 34.6681 31.136 34.6681 31.136C34.4644 31.0019 34.2207 30.9215 33.9595 30.9215C33.2335 30.9215 32.645 31.5257 32.645 32.2712C32.645 33.0167 33.2335 33.621 33.9595 33.621C34.2207 33.621 34.4627 33.5423 34.6681 33.4064C34.6681 33.4064 36.0174 32.5394 36.0174 33.4064V36.7656H39.2888C40.1332 36.7656 39.2888 35.3801 39.2888 35.3801C39.1582 35.1709 39.0799 34.9207 39.0799 34.6525C39.0799 33.907 39.6684 33.3027 40.3944 33.3027C41.1204 33.3027 41.7089 33.907 41.7089 34.6525C41.7089 34.9207 41.6323 35.1691 41.4999 35.3801C41.4999 35.3801 40.6555 36.7656 41.4999 36.7656H44.7713V33.4064C44.7713 32.5394 46.1207 33.4064 46.1207 33.4064C46.3244 33.5405 46.5681 33.621 46.8293 33.621C47.5553 33.621 48.1437 33.0167 48.1437 32.2712C48.1437 31.5257 47.5553 30.9215 46.8293 30.9215Z" fill="#E7703D" fill-opacity="0.8" stroke="white" stroke-miterlimit="10"/>
<path d="M47.2871 24.0671C47.1635 23.8311 46.9807 23.6487 46.7682 23.5272C46.7682 23.5272 45.3876 22.7173 46.1293 22.3079L49.0107 20.7186L47.4629 17.7599C47.0642 16.9966 46.2755 18.416 46.2755 18.416C46.1571 18.6341 45.9796 18.8219 45.7497 18.9488C45.1108 19.301 44.3134 19.0543 43.9704 18.3982C43.6274 17.7421 43.8677 16.9233 44.5066 16.5711C44.7365 16.4442 44.9872 16.3959 45.2292 16.4156C45.2292 16.4156 46.817 16.5228 46.4166 15.7595L44.8688 12.8008L41.9874 14.3901C41.2439 14.7995 41.3484 13.1708 41.3484 13.1708C41.3675 12.9223 41.3205 12.6649 41.1969 12.4289C40.8539 11.7728 40.0565 11.5261 39.4176 11.8783C38.7786 12.2305 38.5384 13.0493 38.8813 13.7054C39.005 13.9413 39.1878 14.1237 39.4002 14.2453C39.4002 14.2453 40.7808 15.0551 40.0391 15.4645L37.1577 17.0538L38.7055 20.0125C39.1042 20.7759 39.8929 19.3564 39.8929 19.3564C40.0113 19.1383 40.1889 18.9506 40.4187 18.8236C41.0576 18.4715 41.855 18.7182 42.198 19.3743C42.541 20.0304 42.3007 20.8491 41.6618 21.2013C41.432 21.3283 41.1813 21.3765 40.9393 21.3569C40.9393 21.3569 39.3514 21.2496 39.7519 22.013L41.2996 24.9717L44.1811 23.3824C44.9245 22.973 44.82 24.6016 44.82 24.6016C44.8009 24.8501 44.8479 25.1075 44.9715 25.3435C45.3145 25.9996 46.1119 26.2463 46.7508 25.8941C47.3915 25.542 47.6318 24.7232 47.2871 24.0671Z" fill="#E7703D" fill-opacity="0.7" stroke="white" stroke-miterlimit="10"/>
<path d="M54.605 3.63691C54.652 3.37233 54.7704 3.14171 54.9358 2.95936C54.9358 2.95936 56.0065 1.75085 55.1761 1.5971L51.9569 1L51.3754 4.30552C51.2256 5.15827 50.0487 4.05882 50.0487 4.05882C49.8711 3.88898 49.6465 3.76563 49.3888 3.71915C48.675 3.58685 47.9908 4.07312 47.862 4.80609C47.7331 5.53906 48.2067 6.24164 48.9205 6.37393C49.1782 6.4222 49.4306 6.38824 49.6552 6.29349C49.6552 6.29349 51.1316 5.68744 50.9819 6.54019L50.4004 9.84572L53.6196 10.4428C54.45 10.5966 53.3793 11.8051 53.3793 11.8051C53.2139 11.9874 53.0955 12.218 53.0485 12.4826C52.9197 13.2156 53.3932 13.9182 54.1071 14.0505C54.8209 14.1828 55.5051 13.6965 55.634 12.9635C55.681 12.6989 55.6479 12.4397 55.5556 12.2091C55.5556 12.2091 54.9654 10.6931 55.7959 10.8469L59.015 11.444L59.5966 8.13843C59.7463 7.28568 58.2699 7.89172 58.2699 7.89172C58.0453 7.98647 57.7928 8.02044 57.5352 7.97217C56.8213 7.83988 56.3478 7.1373 56.4766 6.40433C56.6054 5.67135 57.2897 5.18509 58.0035 5.31738C58.2612 5.36565 58.4858 5.48722 58.6634 5.65705C58.6634 5.65705 59.8403 6.75651 59.99 5.90376L60.5715 2.59824L57.3524 2.00113C56.5219 1.84739 57.1121 3.36339 57.1121 3.36339C57.2044 3.59401 57.2374 3.85323 57.1904 4.11781C57.0616 4.85078 56.3774 5.33705 55.6635 5.20476C54.9497 5.07246 54.4762 4.36988 54.605 3.63691Z" fill="#E7703D" fill-opacity="0.2" stroke="white" stroke-miterlimit="10"/>
<path d="M46.8082 33.6459C46.547 33.6459 46.305 33.5672 46.0995 33.4313C46.0995 33.4313 44.7502 32.5643 44.7502 33.4313V36.7905H48.0217C48.8661 36.7905 48.0217 35.405 48.0217 35.405C47.8911 35.1958 47.8127 34.9456 47.8127 34.6774C47.8127 33.9319 48.4012 33.3277 49.1272 33.3277C49.8532 33.3277 50.4417 33.9319 50.4417 34.6774C50.4417 34.9456 50.3651 35.194 50.2328 35.405C50.2328 35.405 49.3884 36.7905 50.2328 36.7905H53.5042V33.4313C53.5042 32.5643 54.8535 33.4313 54.8535 33.4313C55.0572 33.5654 55.3009 33.6459 55.5621 33.6459C56.2881 33.6459 56.8766 33.0416 56.8766 32.2961C56.8766 31.5506 56.2881 30.9464 55.5621 30.9464C55.3009 30.9464 55.0589 31.025 54.8535 31.1609C54.8535 31.1609 53.5042 32.028 53.5042 31.1609V27.8018H50.2328C49.3884 27.8018 50.2328 29.1873 50.2328 29.1873C50.3633 29.3964 50.4417 29.6467 50.4417 29.9149C50.4417 30.6603 49.8532 31.2646 49.1272 31.2646C48.4012 31.2646 47.8127 30.6603 47.8127 29.9149C47.8127 29.6467 47.8893 29.3982 48.0217 29.1873C48.0217 29.1873 48.8661 27.8018 48.0217 27.8018H44.7502V31.1609C44.7502 32.028 46.0995 31.1609 46.0995 31.1609C46.3033 31.0268 46.547 30.9464 46.8082 30.9464C47.5342 30.9464 48.1226 31.5506 48.1226 32.2961C48.1209 33.0434 47.5324 33.6459 46.8082 33.6459Z" fill="#E7703D" fill-opacity="0.7" stroke="white" stroke-miterlimit="10"/>
<path d="M67.4015 38.0829C67.6557 38.0257 67.8768 37.8952 68.0492 37.7182C68.0492 37.7182 69.1843 36.5741 69.3654 37.4215L70.0688 40.7019L73.2636 39.9815C74.0871 39.7956 72.9745 38.63 72.9745 38.63C72.8022 38.453 72.6751 38.2277 72.6194 37.9649C72.4644 37.2373 72.9119 36.5169 73.6205 36.3578C74.3291 36.1986 75.0307 36.6581 75.1857 37.3857C75.2414 37.6467 75.2188 37.9077 75.1334 38.1419C75.1334 38.1419 74.5989 39.6812 75.4224 39.4934L78.6173 38.7712L77.9156 35.4907C77.7345 34.6451 79.2318 35.1939 79.2318 35.1939C79.4599 35.2797 79.7141 35.3048 79.9683 35.2476C80.6769 35.0885 81.1243 34.368 80.9694 33.6404C80.8144 32.9128 80.1128 32.4533 79.4042 32.6124C79.15 32.6697 78.9289 32.8002 78.7565 32.9771C78.7565 32.9771 77.6214 34.1213 77.4403 33.2739L76.7369 29.9934L73.5421 30.7139C72.7186 30.8998 73.8311 32.0672 73.8311 32.0672C74.0035 32.2442 74.1306 32.4694 74.1863 32.7322C74.3413 33.4598 73.8938 34.1803 73.1852 34.3394C72.4766 34.4985 71.775 34.0391 71.62 33.3114C71.5643 33.0504 71.5869 32.7894 71.6723 32.5552C71.6723 32.5552 72.2068 31.016 71.3832 31.2019L68.1884 31.9242L68.8918 35.2047C69.0729 36.0503 67.5756 35.5014 67.5756 35.5014C67.3475 35.4156 67.0933 35.3906 66.8391 35.4478C66.1305 35.6069 65.6831 36.3274 65.838 37.055C65.9912 37.7844 66.6929 38.2438 67.4015 38.0829Z" fill="#E7703D" fill-opacity="0.4" stroke="white" stroke-miterlimit="10"/>
<path d="M60.2037 39.9402C60.4648 39.9402 60.7068 40.0189 60.9123 40.1548C60.9123 40.1548 62.2616 41.0218 62.2616 40.1548V36.7956H58.9902C58.1458 36.7956 58.9902 35.4101 58.9902 35.4101C59.1208 35.2009 59.1991 34.9507 59.1991 34.6825C59.1991 33.937 58.6106 33.3328 57.8846 33.3328C57.1586 33.3328 56.5701 33.937 56.5701 34.6825C56.5701 34.9507 56.6467 35.1992 56.7791 35.4101C56.7791 35.4101 57.6235 36.7956 56.7791 36.7956H53.5076V40.1548C53.5076 41.0218 52.1583 40.1548 52.1583 40.1548C51.9546 40.0207 51.7109 39.9402 51.4497 39.9402C50.7237 39.9402 50.1353 40.5445 50.1353 41.29C50.1353 42.0355 50.7237 42.6397 51.4497 42.6397C51.7109 42.6397 51.9529 42.5611 52.1583 42.4252C52.1583 42.4252 53.5076 41.5581 53.5076 42.4252V45.7843H56.7791C57.6235 45.7843 56.7791 44.3989 56.7791 44.3989C56.6485 44.1897 56.5701 43.9394 56.5701 43.6712C56.5701 42.9258 57.1586 42.3215 57.8846 42.3215C58.6106 42.3215 59.1991 42.9258 59.1991 43.6712C59.1991 43.9394 59.1225 44.1879 58.9902 44.3989C58.9902 44.3989 58.1458 45.7843 58.9902 45.7843H62.2616V42.4252C62.2616 41.5581 60.9123 42.4252 60.9123 42.4252C60.7086 42.5593 60.4648 42.6397 60.2037 42.6397C59.4777 42.6397 58.8892 42.0355 58.8892 41.29C58.8892 40.5445 59.4777 39.9402 60.2037 39.9402Z" fill="#E7703D" fill-opacity="0.6" stroke="white" stroke-miterlimit="10"/>
<path d="M41.7088 47.8694C41.7088 47.6012 41.6322 47.3527 41.4999 47.1418C41.4999 47.1418 40.6555 45.7563 41.4999 45.7563H44.7713V42.3971C44.7713 41.5301 43.422 42.3971 43.422 42.3971C43.2183 42.5312 42.9745 42.6116 42.7134 42.6116C41.9874 42.6116 41.3989 42.0074 41.3989 41.2619C41.3989 40.5164 41.9874 39.9122 42.7134 39.9122C42.9745 39.9122 43.2165 39.9908 43.422 40.1267C43.422 40.1267 44.7713 40.9937 44.7713 40.1267V36.7675H41.4999C40.6555 36.7675 41.4999 35.382 41.4999 35.382C41.6304 35.1729 41.7088 34.9226 41.7088 34.6544C41.7088 33.9089 41.1203 33.3047 40.3943 33.3047C39.6683 33.3047 39.0798 33.9089 39.0798 34.6544C39.0798 34.9226 39.1564 35.1711 39.2887 35.382C39.2887 35.382 40.1331 36.7675 39.2887 36.7675H36.0173V40.1267C36.0173 40.9937 37.3666 40.1267 37.3666 40.1267C37.5703 39.9926 37.8141 39.9122 38.0752 39.9122C38.8013 39.9122 39.3897 40.5164 39.3897 41.2619C39.3897 42.0074 38.8013 42.6116 38.0752 42.6116C37.8141 42.6116 37.5721 42.533 37.3666 42.3971C37.3666 42.3971 36.0173 41.5301 36.0173 42.3971V45.7563H39.2887C40.1331 45.7563 39.2887 47.1418 39.2887 47.1418C39.1582 47.3509 39.0798 47.6012 39.0798 47.8694C39.0798 48.6149 39.6683 49.2191 40.3943 49.2191C41.1203 49.2191 41.7088 48.6149 41.7088 47.8694Z" fill="#E7703D" stroke="white" stroke-miterlimit="10"/>
<path d="M33.9854 30.9485C34.2466 30.9485 34.4886 31.0272 34.694 31.1631C34.694 31.1631 36.0433 32.0301 36.0433 31.1631V27.8039H32.7719C31.9275 27.8039 32.7719 26.4184 32.7719 26.4184C32.9025 26.2092 32.9808 25.959 32.9808 25.6908C32.9808 24.9453 32.3924 24.3411 31.6664 24.3411C30.9403 24.3411 30.3519 24.9453 30.3519 25.6908C30.3519 25.959 30.4285 26.2075 30.5608 26.4184C30.5608 26.4184 31.4052 27.8039 30.5608 27.8039H27.2894V31.1631C27.2894 32.0301 25.9401 31.1631 25.9401 31.1631C25.7364 31.029 25.4926 30.9485 25.2315 30.9485C24.5055 30.9485 23.917 31.5528 23.917 32.2983C23.917 33.0438 24.5055 33.648 25.2315 33.648C25.4926 33.648 25.7346 33.5694 25.9401 33.4335C25.9401 33.4335 27.2894 32.5664 27.2894 33.4335V36.7926H30.5608C31.4035 36.7926 30.5608 38.1781 30.5608 38.1781C30.4302 38.3873 30.3519 38.6376 30.3519 38.9057C30.3519 39.6512 30.9403 40.2555 31.6664 40.2555C32.3924 40.2555 32.9808 39.6512 32.9808 38.9057C32.9808 38.6376 32.9042 38.3891 32.7719 38.1781C32.7719 38.1781 31.9292 36.7944 32.7719 36.7926H36.0433V33.4335C36.0433 32.5664 34.694 33.4335 34.694 33.4335C34.4903 33.5676 34.2466 33.648 33.9854 33.648C33.2594 33.648 32.6709 33.0438 32.6709 32.2983C32.6709 31.5528 33.2594 30.9485 33.9854 30.9485Z" fill="#E7703D" stroke="white" stroke-miterlimit="10"/>
<path d="M60.2037 48.9271C60.4648 48.9271 60.7068 49.0057 60.9123 49.1416C60.9123 49.1416 62.2616 50.0086 62.2616 49.1416V45.7824H58.9902C58.1458 45.7824 58.9902 44.3969 58.9902 44.3969C59.1208 44.1878 59.1991 43.9375 59.1991 43.6693C59.1991 42.9238 58.6106 42.3196 57.8846 42.3196C57.1586 42.3196 56.5701 42.9238 56.5701 43.6693C56.5701 43.9375 56.6467 44.186 56.7791 44.3969C56.7791 44.3969 57.6235 45.7824 56.7791 45.7824H53.5076V49.1416C53.5076 50.0086 52.1583 49.1416 52.1583 49.1416C51.9546 49.0075 51.7109 48.9271 51.4497 48.9271C50.7237 48.9271 50.1353 49.5313 50.1353 50.2768C50.1353 51.0223 50.7237 51.6265 51.4497 51.6265C51.7109 51.6265 51.9529 51.5479 52.1583 51.412C52.1583 51.412 53.5076 50.545 53.5076 51.412V54.7712H56.7791C57.6235 54.7712 56.7791 53.3857 56.7791 53.3857C56.6485 53.1765 56.5701 52.9262 56.5701 52.6581C56.5701 51.9126 57.1586 51.3083 57.8846 51.3083C58.6106 51.3083 59.1991 51.9126 59.1991 52.6581C59.1991 52.9262 59.1225 53.1747 58.9902 53.3857C58.9902 53.3857 58.1458 54.7712 58.9902 54.7712H62.2616V51.412C62.2616 50.545 60.9123 51.412 60.9123 51.412C60.7086 51.5461 60.4648 51.6265 60.2037 51.6265C59.4777 51.6265 58.8892 51.0223 58.8892 50.2768C58.8892 49.5313 59.4777 48.9271 60.2037 48.9271Z" fill="#E7703D" stroke="white" stroke-miterlimit="10"/>
</svg>
