<svg width="13" height="13" viewBox="0 0 13 13" fill="none" xmlns="http://www.w3.org/2000/svg">
<path d="M12.4615 1.3781C12.6934 1.14622 12.6934 0.770281 12.4615 0.538407C12.2296 0.306534 11.8537 0.306534 11.6218 0.538407L6.49999 5.66024L1.37816 0.53841C1.14628 0.306536 0.770342 0.306536 0.538468 0.53841C0.306595 0.770283 0.306595 1.14623 0.538468 1.3781L5.6603 6.49993L0.53849 11.6217C0.306616 11.8536 0.306616 12.2296 0.53849 12.4614C0.770363 12.6933 1.14631 12.6933 1.37818 12.4614L6.49999 7.33962L11.6218 12.4614C11.8537 12.6933 12.2296 12.6933 12.4615 12.4614C12.6934 12.2296 12.6934 11.8536 12.4615 11.6217L7.33968 6.49993L12.4615 1.3781Z" fill="#424874"/>
</svg>
