<svg width="16" height="16" viewBox="0 0 16 16" fill="none" xmlns="http://www.w3.org/2000/svg">
<path fill-rule="evenodd" clip-rule="evenodd" d="M7.99996 0.833252C6.25106 0.833252 4.83329 2.25102 4.83329 3.99992V4.16658H2.66663C2.39048 4.16658 2.16663 4.39044 2.16663 4.66658C2.16663 4.94273 2.39048 5.16658 2.66663 5.16658H13.3333C13.6094 5.16658 13.8333 4.94273 13.8333 4.66658C13.8333 4.39044 13.6094 4.16658 13.3333 4.16658H11.1666V3.99992C11.1666 2.25102 9.74886 0.833252 7.99996 0.833252ZM7.99996 1.83325C9.19658 1.83325 10.1666 2.8033 10.1666 3.99992V4.16658H5.83329V3.99992C5.83329 2.8033 6.80334 1.83325 7.99996 1.83325Z" fill="#424874"/>
<path d="M3.83105 5.95262C3.80493 5.67772 3.5609 5.47604 3.286 5.50216C3.01109 5.52828 2.80941 5.77231 2.83553 6.04721C2.89851 6.71007 3.01218 7.52679 3.15828 8.57663L3.34598 9.92535C3.52542 11.2152 3.62719 11.9467 3.84736 12.5459C4.2571 13.6611 4.98799 14.5551 5.928 14.9518C6.43845 15.1672 7.02231 15.167 7.89151 15.1666H8.10841C8.97761 15.167 9.56147 15.1672 10.0719 14.9518C11.0119 14.5551 11.7428 13.6611 12.1526 12.5459C12.3727 11.9467 12.4745 11.2152 12.6539 9.92532L12.8416 8.57663C12.9877 7.5268 13.1014 6.71007 13.1644 6.04721C13.1905 5.77231 12.9888 5.52828 12.7139 5.50216C12.439 5.47604 12.195 5.67772 12.1689 5.95262C12.1082 6.59127 11.9976 7.3866 11.8495 8.45066L11.6746 9.70734C11.481 11.0991 11.3923 11.7156 11.2139 12.201C10.87 13.1371 10.2981 13.771 9.68314 14.0305C9.383 14.1571 9.0194 14.1666 7.99996 14.1666C6.98052 14.1666 6.61692 14.1571 6.31678 14.0305C5.70182 13.771 5.12993 13.1371 4.78601 12.201C4.60766 11.7156 4.51896 11.0991 4.32528 9.70735L4.15039 8.45066C4.0023 7.38661 3.89173 6.59127 3.83105 5.95262Z" fill="#424874"/>
</svg>
