<svg width="68" height="80" viewBox="0 0 68 80" fill="none" xmlns="http://www.w3.org/2000/svg">
<path d="M47.8274 4.96145C56.8078 8.87948 63.3586 18.6379 64.0325 29.0993C64.2364 32.2611 63.9092 35.5677 62.4248 38.2997C60.9404 41.03 58.1147 43.054 55.2017 42.7641C52.9217 42.5376 50.9557 41.01 49.1162 39.5357C41.9062 33.762 34.6963 27.9899 27.488 22.2161C25.5975 20.7019 23.6726 19.151 22.3246 17.0637C21.2167 15.3462 20.0134 12.1262 21.0358 10.0589C21.9087 8.29145 24.7049 6.93546 26.2896 6.07923C30.5077 3.79704 35.2947 2.75256 40.001 3.06907C42.6805 3.25065 45.337 3.87533 47.8274 4.96145Z" fill="url(#paint0_linear_145_2225)"/>
<path d="M22.2902 80H21.4666V77.3147C21.1017 69.3537 17.9191 66.027 16.055 64.7543C13.8062 63.2184 13.2194 63.0802 11.4785 62.6721C10.9919 62.5588 10.3886 62.4172 9.64233 62.2189C9.30863 62.1307 8.97493 62.0474 8.63958 61.9624C7.22587 61.6076 5.76612 61.2428 4.41981 60.5431C2.46526 59.5286 1.10744 57.9028 0.696472 56.087C0.26907 54.2013 0.994011 52.2473 1.63347 50.5248C1.72717 50.2749 1.81923 50.0267 1.90635 49.7819C2.11676 49.1922 2.04937 48.4975 1.73046 47.9694C1.64662 47.8295 1.54141 47.6946 1.43128 47.553C1.27182 47.3481 1.10744 47.1349 0.977573 46.8767C0.64387 46.2136 0.632363 45.3824 0.946339 44.7077C1.10415 44.3696 1.38032 44.0531 1.7058 43.8115C1.48717 43.6283 1.3047 43.3967 1.17319 43.1302C0.778665 42.3273 0.841132 41.521 1.331 41.0762C2.1332 40.3499 2.81376 39.6769 3.01924 38.7974C3.08993 38.4959 3.09321 38.2593 3.02417 37.9495C2.24992 37.3881 1.3984 36.7467 0.786885 35.8655C0.035643 34.7844 -0.197784 33.4567 0.173728 32.4039C0.543595 31.3578 1.41319 30.6981 2.11348 30.1684C2.69047 29.7319 3.28719 29.3188 3.86583 28.9207C5.47681 27.8096 6.99737 26.7601 8.14314 25.2009C9.05219 23.9648 9.54699 22.4756 10.0714 20.8997C10.2834 20.26 10.5037 19.5987 10.7536 18.9607C11.9963 15.7806 13.9953 13.072 15.9284 10.4533C18.0967 7.51476 22.1619 4.74448 23.357 3.96487C29.4837 -0.0314504 34.453 -0.16305 39.8548 0.0701658C46.0636 0.338364 52.0423 2.49228 56.6878 6.13212C59.9476 8.68584 62.7142 12.1308 64.6852 16.0905C66.6562 20.0501 67.7937 24.4446 67.9745 28.7991C68.1537 33.1535 67.3844 37.6413 65.7471 41.7759C64.1098 45.9105 61.6391 49.6086 58.6029 52.4672C56.0023 54.9176 54.4325 56.6101 52.1459 59.4337C48.1299 64.3945 47.2192 71.9857 49.9316 77.8944L49.1951 78.2909C46.3381 72.0673 47.2965 64.0713 51.5278 58.844C53.8423 55.9854 55.4303 54.2713 58.0637 51.7925C61.0079 49.0206 63.403 45.434 64.9926 41.4227C66.5822 37.4114 67.3285 33.0586 67.1543 28.8374C66.98 24.6162 65.877 20.355 63.9635 16.5119C62.0501 12.6688 59.369 9.32885 56.2078 6.85343C51.6922 3.3152 45.8729 1.22125 39.8235 0.959719C33.4388 0.683191 29.2042 1.1896 23.7828 4.72616C22.6173 5.48578 18.6556 8.18442 16.5728 11.0063C14.6742 13.5784 12.7114 16.2387 11.513 19.3038C11.273 19.9185 11.0561 20.5682 10.8473 21.1979C10.3229 22.7721 9.78042 24.4013 8.78753 25.7523C7.55628 27.4281 5.90585 28.5675 4.30802 29.6686C3.73761 30.0618 3.14746 30.4699 2.58526 30.8947C1.8406 31.4594 1.20278 31.9858 0.943051 32.7171C0.617567 33.6366 0.989079 34.6661 1.44443 35.3241C2.00663 36.1337 2.82198 36.7251 3.60938 37.2965C3.68993 37.3548 3.74747 37.4414 3.77541 37.5413C3.92336 38.0811 3.93487 38.5075 3.81651 39.0123C3.52884 40.2433 2.56389 41.1179 1.85868 41.7559C1.65649 41.9391 1.73703 42.3772 1.89978 42.7054C2.07567 43.0636 2.43074 43.3218 2.80225 43.3651C3.00938 43.3884 3.16719 43.5766 3.17048 43.8015C3.17376 44.0264 3.02088 44.2197 2.81376 44.2496C2.38471 44.3129 1.86525 44.7044 1.67785 45.1059C1.48717 45.5157 1.49374 46.0421 1.69758 46.4452C1.78799 46.6251 1.9195 46.795 2.05923 46.9749C2.18087 47.1315 2.30581 47.2931 2.41595 47.4763C2.87787 48.241 2.97486 49.2471 2.67074 50.0984C2.58197 50.3466 2.48828 50.5981 2.39458 50.853C1.7732 52.5288 1.12881 54.2629 1.49374 55.8705C1.84553 57.428 3.04225 58.8356 4.77323 59.7352C6.03736 60.3915 7.45272 60.7463 8.82205 61.0895C9.16069 61.1745 9.49767 61.2594 9.83467 61.3477C10.5695 61.5426 11.1432 61.6759 11.6495 61.7958C13.4479 62.2173 14.1202 62.3739 16.4923 63.9947C18.6474 65.4673 20.2419 67.8111 21.2299 70.9612C21.82 72.8436 22.1866 75.0275 22.2885 77.2764C22.2885 77.283 22.2885 77.2914 22.2885 77.298V80H22.2902Z" fill="#768E9E"/>
<path d="M20.0103 32.8705C19.0668 32.8705 18.1248 32.659 17.2487 32.2375C15.5456 31.4163 14.104 29.7988 13.2903 27.7981C13.1982 27.5732 13.2935 27.31 13.5007 27.2101C13.7094 27.1101 13.9511 27.2134 14.0431 27.4383C14.7747 29.2374 16.0651 30.69 17.5824 31.4229C19.0881 32.1492 20.8208 32.1659 22.3364 31.4679C22.5452 31.3713 22.7868 31.4779 22.8756 31.7045C22.9643 31.931 22.8674 32.1926 22.6586 32.2892C21.8153 32.6773 20.9128 32.8705 20.0103 32.8705Z" fill="#768E9E"/>
<path d="M60.467 28.0511C60.1695 27.5714 59.8013 27.1466 59.3854 26.7834C60.4917 25.8123 61.0703 24.2031 60.8665 22.6222C60.6659 21.0613 59.7026 19.5621 58.353 18.7058C57.3338 18.0595 56.1157 17.768 54.9009 17.8579C55.4187 16.9117 55.6275 15.7407 55.4615 14.5796C55.2724 13.2502 54.6116 11.9409 53.6023 10.8931C52.713 9.97023 51.5754 9.24892 50.2209 8.7525C48.7496 8.21277 47.2751 8.04453 45.9551 8.26941C44.4937 8.51762 43.1753 9.27557 42.3172 10.355C42.1857 10.3101 42.0542 10.2717 41.9178 10.2451C41.9457 9.4888 41.7057 8.6842 41.2339 7.99122C40.7851 7.32988 40.1325 6.75684 39.2974 6.28874C38.0646 5.59909 36.6985 5.29424 35.4525 5.43084C34.0667 5.58243 32.8141 6.27541 32.0135 7.33155C31.2557 8.33271 30.9384 9.64539 31.1373 10.8598C30.0557 10.1901 28.7258 9.98688 27.534 10.3367C26.145 10.7448 25.0091 11.8809 24.5701 13.3019C24.1263 14.7378 24.4337 16.4236 25.3526 17.5981C25.4167 17.6797 25.4841 17.758 25.5532 17.8346C24.391 18.7791 23.7301 20.395 23.8945 21.9542C24.0688 23.6117 25.1734 25.1709 26.6414 25.8323C26.6924 25.8556 26.745 25.8772 26.7976 25.8989C27.4206 26.1438 28.2014 26.242 28.859 25.9455C28.6338 27.0566 28.8918 28.306 29.5839 29.2855C30.1099 30.0318 30.8743 30.6148 31.7439 30.9547C32.1319 31.1063 32.5412 31.2112 32.9587 31.2595C33.8415 31.3628 34.6684 31.2195 35.3538 30.8481C35.6563 30.6848 35.9243 30.4766 36.1528 30.235C36.184 31.2145 36.4634 32.1641 36.9714 32.9603C37.5007 33.7883 38.2667 34.4163 39.1183 34.7494C39.4536 34.881 39.8021 34.9643 40.1539 34.9976C40.1703 35.021 40.1884 35.0443 40.2114 35.0643C42.0378 36.6785 43.2361 39.1189 43.4202 41.591L43.4285 41.6976C43.4564 42.0941 43.4876 42.5438 43.726 42.9337C43.892 43.2069 44.1468 43.4101 44.4361 43.5234C44.7435 43.645 45.0904 43.6633 45.4077 43.555C45.8351 43.4101 46.2049 43.0636 46.537 42.4955C46.6093 42.3706 46.6784 42.244 46.7474 42.1157C46.851 41.9225 46.9512 41.7376 47.0647 41.5693C47.5595 42.0791 48.1874 42.4889 48.914 42.7737C48.9781 42.7987 49.0439 42.8237 49.1096 42.847C50.0269 43.1719 50.9359 43.2452 51.7365 43.0586C52.7261 42.8287 53.6039 42.1857 54.148 41.2961C54.679 40.4282 54.8746 39.3455 54.6938 38.3143C54.7086 38.311 54.725 38.3093 54.7415 38.3043C55.7196 38.0628 56.4988 37.1782 56.6829 36.1004C57.4818 36.2687 58.3629 36.1071 59.1076 35.6523C59.7898 35.2359 60.3635 34.5862 60.7662 33.7749C61.6457 32.0041 61.5273 29.7586 60.467 28.0511ZM45.9912 42.1307C45.7381 42.5605 45.4783 42.817 45.1972 42.9137C44.857 43.0286 44.4476 42.8837 44.2635 42.5805C44.1156 42.3373 44.0926 42.0108 44.0679 41.6643L44.0597 41.556C43.8772 39.1072 42.7643 36.6901 41.0531 34.9693C41.7484 34.856 42.3945 34.5379 42.9057 34.0664C42.9123 34.4146 42.9649 34.7661 43.0652 35.1043C43.3594 36.1004 44.0515 37.0116 44.9655 37.6047C45.212 37.7646 45.4668 37.8945 45.7266 37.9961C45.8038 38.0261 45.8794 38.0511 45.9567 38.0761C45.7447 39.0506 45.9912 40.1501 46.6274 41.0446C46.4548 41.2778 46.3184 41.5277 46.1868 41.7726C46.1244 41.8942 46.0603 42.0141 45.9912 42.1307ZM60.1991 33.4484C59.8506 34.1514 59.3574 34.7111 58.7771 35.0659C58.1558 35.4458 57.4259 35.579 56.7716 35.4341C56.7568 35.4308 56.7404 35.4308 56.7256 35.4291C56.6894 34.6412 56.364 33.8566 55.81 33.2602C56.3574 32.6138 56.6138 31.6843 56.4363 30.8231C56.3985 30.6398 56.2275 30.5216 56.0549 30.5565C55.8823 30.5915 55.7722 30.7681 55.81 30.9497C55.9859 31.7993 55.6061 32.7354 54.9091 33.1752C54.2122 33.615 53.2357 33.535 52.588 32.9837C52.4483 32.8654 52.2477 32.8854 52.1376 33.0286C52.0291 33.1719 52.0521 33.3835 52.1919 33.5034C52.4121 33.6916 52.662 33.8382 52.9267 33.9415C53.6845 34.2397 54.5672 34.1864 55.2494 33.7566C55.2774 33.7383 55.3053 33.7183 55.3316 33.6983C55.902 34.2963 56.1864 35.1759 56.0566 35.9538C55.9201 36.7718 55.3135 37.4681 54.582 37.6496C53.8291 37.8362 52.976 37.4581 52.5962 36.7701C52.5075 36.6068 52.3102 36.5485 52.1573 36.6385C52.0045 36.7284 51.9535 36.9333 52.0439 37.0966C52.3234 37.603 52.7886 37.9878 53.3179 38.196C53.5546 38.2893 53.8061 38.346 54.0576 38.3626C54.2286 39.2455 54.0642 40.1767 53.6105 40.923C53.1552 41.6693 52.4171 42.209 51.5869 42.4023C50.8998 42.5622 50.1107 42.4955 49.3036 42.2107C48.6641 41.9858 47.7732 41.5344 47.1501 40.6698C46.6241 39.9385 46.4121 39.0073 46.5879 38.226C47.114 38.2977 47.6285 38.2477 48.0888 38.0644C49.2083 37.618 49.8855 36.3753 49.6291 35.2375C49.588 35.0559 49.4154 34.9393 49.2428 34.9777C49.0702 35.016 48.965 35.1942 49.0044 35.3758C49.1869 36.1837 48.6674 37.1066 47.8471 37.4331C47.0943 37.7329 46.1392 37.5863 45.2926 37.0383C44.5134 36.5335 43.9249 35.7623 43.6783 34.9243C43.4169 34.0398 43.5485 33.0636 44.0202 32.3756C44.1222 32.2274 44.0876 32.0158 43.943 31.9042C43.7983 31.7926 43.5978 31.8242 43.4959 31.9725C43.3627 32.1674 43.2526 32.3806 43.1622 32.6055C43.1506 32.6222 43.1408 32.6372 43.1326 32.6555C42.669 33.6816 41.5462 34.3763 40.3988 34.343C39.2794 34.3113 38.1698 33.6417 37.5007 32.5939C36.8711 31.6093 36.6443 30.29 36.8908 29.0673C36.9007 29.0173 36.8991 28.969 36.8892 28.9224C36.8941 28.9024 36.9023 28.8824 36.9073 28.8607C36.95 28.6808 36.8448 28.4959 36.6739 28.4459C36.5029 28.396 36.3286 28.5009 36.2859 28.6808C36.133 29.3238 35.6695 29.9085 35.0481 30.2467C34.4744 30.5582 33.7708 30.6765 33.013 30.5882C31.8393 30.4516 30.7478 29.8169 30.0951 28.8907C29.4014 27.9045 29.2239 26.6019 29.6431 25.5691C29.648 25.5591 29.6497 25.5474 29.6529 25.5374C29.8551 25.6807 30.0738 25.8023 30.3072 25.8956C30.3105 25.8972 30.3138 25.8989 30.3187 25.9006C30.9943 26.1621 31.7883 26.2054 32.6152 26.0272C32.7878 25.9905 32.8946 25.8123 32.8552 25.6307C32.8157 25.4491 32.6431 25.3308 32.4705 25.3692C31.7604 25.5224 31.088 25.4891 30.5258 25.2709C29.9012 25.031 29.3965 24.5346 29.191 23.9549C28.9757 23.3485 29.1203 22.6355 29.5346 22.2591C29.6661 22.1391 29.6776 21.9259 29.5609 21.7843C29.4425 21.6427 29.2403 21.6244 29.1088 21.7443C28.4957 22.3024 28.282 23.3019 28.591 24.1748C28.7028 24.4896 28.8803 24.7828 29.1039 25.0426C29.0349 25.0443 28.9675 25.0693 28.9116 25.1193C28.3576 25.6157 27.4715 25.4808 26.8798 25.2142C25.6239 24.6478 24.6786 23.3152 24.529 21.8959C24.3844 20.5199 24.9926 19.0923 26.0463 18.2977C26.3899 18.5742 26.7713 18.7975 27.174 18.9557C27.8365 19.2156 28.5532 19.3039 29.2453 19.1889C29.4195 19.1606 29.5346 18.9874 29.5017 18.8041C29.4688 18.6209 29.3028 18.4943 29.1286 18.5243C27.9466 18.7208 26.6266 18.1794 25.8425 17.1783C25.0617 16.1804 24.8019 14.7462 25.18 13.5251C25.5548 12.309 26.5296 11.3362 27.7214 10.9864C28.9132 10.6366 30.2694 10.9297 31.259 11.7493C31.4004 11.8659 31.6009 11.8426 31.7078 11.6977C31.7456 11.646 31.7669 11.5844 31.7719 11.5228C31.8606 11.4395 31.9001 11.3079 31.8623 11.178C31.5302 10.0419 31.7801 8.73085 32.5182 7.758C33.2152 6.8368 34.3149 6.2321 35.533 6.09884C36.6541 5.97723 37.887 6.25376 39.0065 6.88011C39.7512 7.29657 40.3265 7.79798 40.7144 8.37103C41.0991 8.93741 41.2964 9.58542 41.2767 10.1901C41.0712 10.1951 40.8673 10.2218 40.6684 10.2734C39.7413 10.5116 38.9654 11.2446 38.6465 12.1874C38.5873 12.3607 38.6744 12.5556 38.8421 12.6222H38.8437C39.0098 12.6872 39.1922 12.6006 39.2514 12.4273C39.498 11.6994 40.121 11.1113 40.8361 10.9264C41.5528 10.7432 42.3797 10.9597 42.9452 11.4795C43.5107 11.9992 43.8263 12.8338 43.7507 13.6067C43.7326 13.7916 43.8608 13.9599 44.0367 13.9832C44.2126 14.0065 44.3704 13.8766 44.3885 13.6917C44.4871 12.6905 44.0926 11.651 43.3611 10.9764C43.2279 10.8531 43.0832 10.7432 42.932 10.6482C43.6964 9.76366 44.8257 9.14397 46.0734 8.93075C47.2866 8.72418 48.6526 8.88077 50.0236 9.38385C51.2844 9.84695 52.3382 10.5133 53.1568 11.3629C54.0658 12.3057 54.6593 13.4768 54.827 14.6595C55.0012 15.8823 54.7037 17.1133 54.0313 17.9879C54.0248 17.9895 54.0198 17.9912 54.0132 17.9912C53.068 16.9734 51.5392 16.6435 50.3277 17.2133C50.1683 17.2882 50.0992 17.4864 50.1748 17.6564C50.2505 17.8263 50.4411 17.9029 50.6022 17.8279C51.5869 17.3648 52.8856 17.663 53.6253 18.5226C54.365 19.3805 54.5163 20.7665 53.9771 21.7443C53.89 21.9026 53.9426 22.1108 54.0971 22.2057C54.1152 22.2174 54.1332 22.2257 54.1513 22.2324C54.2943 22.289 54.4571 22.2324 54.5343 22.0908C55.1179 21.033 55.067 19.647 54.4554 18.5876C55.7015 18.3693 56.987 18.6109 58.0325 19.2739C59.2144 20.0235 60.0561 21.3328 60.232 22.6905C60.4144 24.1065 59.8703 25.5474 58.8462 26.3603C57.8763 25.6973 56.7223 25.3442 55.5683 25.4058C55.3924 25.4158 55.2593 25.574 55.2741 25.759C55.2872 25.9439 55.4418 26.0871 55.6176 26.0771C57.2763 25.9872 59.0106 26.9217 59.9311 28.4026C60.8533 29.8902 60.9602 31.9159 60.1991 33.4484Z" fill="white"/>
<path d="M39.5818 17.6868C39.8843 18.4698 39.7199 19.4376 39.179 20.0406C39.059 20.1739 39.0673 20.3871 39.1988 20.5171C39.2316 20.5504 39.2695 20.5737 39.3106 20.5904C39.4273 20.637 39.5637 20.6087 39.6525 20.5087C40.3659 19.7125 40.5763 18.4831 40.1752 17.4486C39.7758 16.4141 38.7993 15.6628 37.7456 15.5812C36.6935 15.4996 35.6546 16.0926 35.1598 17.0571C35.0776 17.2187 35.1368 17.4236 35.293 17.5152C35.4491 17.6069 35.6431 17.5486 35.7253 17.387C36.0985 16.6573 36.9155 16.1909 37.7127 16.2525C38.51 16.3125 39.2777 16.9022 39.5818 17.6868Z" fill="white"/>
<path d="M49.9215 25.5291C49.7489 25.4841 49.5779 25.5941 49.5401 25.7757C49.5023 25.9556 49.6108 26.1388 49.7851 26.1838C50.8421 26.457 51.7577 27.3615 52.0651 28.4343C52.3758 29.5204 52.0503 30.7848 51.2728 31.5094C50.4755 32.2524 49.2508 32.419 48.2941 31.9142C48.1346 31.8293 47.9423 31.8959 47.8667 32.0608C47.7911 32.2257 47.8585 32.429 48.0179 32.5139C48.1198 32.5672 48.2234 32.6155 48.3303 32.6572C49.4612 33.1003 50.8059 32.8588 51.7067 32.0192C52.6733 31.1163 53.0646 29.6054 52.6799 28.2577C52.3002 26.9334 51.2185 25.8623 49.9215 25.5291Z" fill="white"/>
<path d="M47.8043 28.9921C47.0563 29.357 46.1309 29.3203 45.3911 28.8989C44.6514 28.4774 44.1073 27.6778 43.9741 26.8099C43.8574 26.057 44.0514 25.264 44.4854 24.6676C44.8076 24.9875 45.1873 25.2424 45.6015 25.4039C45.8415 25.4972 46.0914 25.5622 46.3446 25.5922C47.2553 25.6988 48.3879 25.2574 48.692 24.2295C48.7446 24.053 48.6492 23.8614 48.4799 23.8031C48.3106 23.7431 48.1314 23.8381 48.0788 24.0146C47.8799 24.6843 47.0679 25.0025 46.3972 24.9225C45.5933 24.8276 44.8454 24.3045 44.4459 23.5565C44.053 22.8202 44.0234 21.8641 44.3703 21.1228C44.4475 20.9578 44.3818 20.7546 44.2223 20.6697C44.0629 20.5847 43.8722 20.6497 43.7949 20.8146C43.3511 21.7624 43.3873 22.9352 43.8886 23.8747C43.938 23.968 43.9922 24.058 44.0497 24.1446C43.5632 24.7593 43.2952 25.5639 43.2969 26.3735C42.5111 27.0964 41.2371 27.1797 40.3461 26.55C39.4256 25.8987 39.008 24.5527 39.396 23.4849C39.4585 23.3133 39.3746 23.1168 39.2102 23.0468C39.0442 22.9768 38.8601 23.0585 38.7976 23.2317C38.6415 23.6615 38.5888 24.1279 38.6267 24.5894C38.2584 25.0425 37.7258 25.3606 37.1636 25.4622C36.5981 25.5655 35.9817 25.4539 35.4721 25.1574C35.2814 25.0458 34.9494 24.8109 34.8606 24.4727C34.8129 24.2928 34.637 24.1829 34.4661 24.2279C34.2951 24.2728 34.1965 24.4561 34.2425 24.636C34.3872 25.1891 34.8277 25.5439 35.1713 25.7438C35.3143 25.8271 35.4606 25.8987 35.6118 25.957C36.1461 26.1669 36.7264 26.2269 37.2869 26.1252C37.8442 26.0236 38.3604 25.7654 38.7828 25.384C39.0015 26.0736 39.4206 26.6983 39.9976 27.1048C40.1883 27.2397 40.3922 27.348 40.6059 27.4329C41.5149 27.7894 42.5801 27.6828 43.3856 27.1497C43.6108 28.1259 44.247 29.0071 45.0919 29.4886C45.2251 29.5652 45.3648 29.6302 45.5062 29.6868C46.338 30.0133 47.2881 29.9883 48.0805 29.6035C48.2399 29.5269 48.3057 29.327 48.2268 29.1571C48.1561 28.9888 47.9638 28.9138 47.8043 28.9921Z" fill="white"/>
<path d="M43.4352 17.3335C43.5421 17.4834 43.7443 17.5168 43.884 17.4085C44.8654 16.6472 46.4139 16.7488 47.3361 17.635C48.2583 18.5213 48.4967 20.1371 47.8654 21.2349C47.775 21.3915 47.8243 21.5997 47.9772 21.6997C47.9969 21.7113 48.015 21.7213 48.0364 21.7296C48.1778 21.7846 48.3372 21.7313 48.4161 21.5931C49.2101 20.2137 48.9224 18.2581 47.7619 17.1436C46.6013 16.0292 44.7273 15.9059 43.4944 16.8638C43.3547 16.972 43.3267 17.1819 43.4352 17.3335Z" fill="white"/>
<path d="M7.69275 20.6932L7.20288 20.525C7.26535 20.3117 7.3311 20.0952 7.3985 19.8836L7.88508 20.0652C7.81933 20.2718 7.75522 20.4833 7.69275 20.6932ZM8.09056 19.4405L7.60727 19.2473C7.67796 19.0374 7.75357 18.8258 7.83083 18.6159L8.30919 18.8225C8.23358 19.0274 8.15961 19.2356 8.09056 19.4405ZM8.54098 18.2095L8.06755 17.9912C8.1481 17.7863 8.23193 17.5781 8.31741 17.3732L8.78591 17.6031C8.70372 17.8047 8.61988 18.0096 8.54098 18.2095ZM9.04564 17.0034L8.58208 16.7619C8.67249 16.5603 8.76454 16.3554 8.85824 16.1572L9.31688 16.4104C9.22482 16.6053 9.13441 16.8052 9.04564 17.0034ZM9.60127 15.8223L9.14921 15.5575C9.24619 15.3609 9.34811 15.1627 9.45168 14.9661L9.89881 15.2426C9.79689 15.4359 9.69661 15.6308 9.60127 15.8223ZM10.2062 14.6712L9.76565 14.3847C9.8725 14.1931 9.981 13.9999 10.0928 13.81L10.5284 14.1082C10.4183 14.2931 10.3098 14.483 10.2062 14.6712ZM10.8588 13.5518L10.4298 13.2436C10.5448 13.057 10.6632 12.8688 10.7799 12.6856L11.2024 13.0037C11.0873 13.1837 10.9722 13.3669 10.8588 13.5518ZM11.5591 12.464L11.1432 12.1342C11.2648 11.9543 11.3898 11.7727 11.5164 11.5945L11.924 11.9343C11.8007 12.1092 11.6775 12.2874 11.5591 12.464ZM12.3038 11.4129L11.9027 11.0631C12.0325 10.8881 12.1657 10.7132 12.2988 10.5416L12.6917 10.9015C12.5618 11.068 12.4303 11.2413 12.3038 11.4129ZM13.0912 10.3984L12.7049 10.0302C12.8413 9.86199 12.9827 9.69374 13.1224 9.52882L13.5005 9.90696C13.3624 10.0686 13.2243 10.2335 13.0912 10.3984ZM13.9213 9.42554L13.5514 9.0374C13.6961 8.87582 13.8424 8.71423 13.9904 8.55764L14.352 8.95411C14.2073 9.10737 14.0627 9.26729 13.9213 9.42554ZM14.7909 8.49434L14.4375 8.08955C14.5871 7.93629 14.7416 7.78137 14.8961 7.63144L15.2397 8.04623C15.0885 8.19283 14.9372 8.34275 14.7909 8.49434ZM15.6983 7.60645L15.363 7.18333C15.5208 7.03674 15.6819 6.89015 15.8413 6.74855L16.1668 7.18C16.0123 7.31827 15.8545 7.46153 15.6983 7.60645ZM16.6452 6.76688L16.3279 6.3271C16.4923 6.18717 16.66 6.0489 16.8244 5.9173L17.1318 6.36541C16.9707 6.49535 16.8063 6.63028 16.6452 6.76688ZM17.6249 5.97561L17.3274 5.52084C17.4967 5.3909 17.6693 5.26263 17.8403 5.1377L18.1279 5.6008C17.9603 5.7224 17.791 5.849 17.6249 5.97561Z" fill="#E7703D"/>
<path d="M45.4965 71.6057C45.4587 71.3825 45.4259 71.1543 45.3996 70.9294L45.9108 70.8594C45.9355 71.0743 45.9667 71.2909 46.0029 71.5058L45.4965 71.6057ZM45.3387 70.2498C45.3239 70.0249 45.3141 69.795 45.3108 69.5668L45.8253 69.5568C45.8286 69.775 45.8385 69.9949 45.8516 70.2098L45.3387 70.2498ZM45.8286 68.9021L45.3141 68.8838C45.3207 68.6589 45.3322 68.429 45.3502 68.2024L45.8631 68.2474C45.8467 68.4657 45.8352 68.6855 45.8286 68.9021ZM45.9256 67.5944L45.416 67.5228C45.4423 67.2996 45.4735 67.073 45.5097 66.8498L46.016 66.9464C45.9815 67.1613 45.9519 67.3795 45.9256 67.5944ZM46.1344 66.3017L45.6313 66.1818C45.6757 65.9619 45.725 65.7387 45.7793 65.5205L46.2774 65.6621C46.2248 65.8736 46.1771 66.0885 46.1344 66.3017ZM46.4434 65.0307L45.9519 64.8675C46.0127 64.6526 46.0785 64.4343 46.1475 64.2211L46.6325 64.406C46.5667 64.6126 46.5026 64.8225 46.4434 65.0307ZM46.8445 63.788L46.3661 63.5831C46.4418 63.3749 46.5223 63.1633 46.6062 62.9551L47.0779 63.1783C46.9957 63.3815 46.9185 63.5864 46.8445 63.788ZM47.3311 62.5819L46.8675 62.3404C46.9563 62.1388 47.0516 61.9356 47.1486 61.734L47.604 61.9922C47.5103 62.1871 47.4182 62.3854 47.3311 62.5819ZM47.8966 61.4125L47.4494 61.1377C47.5514 60.9428 47.6582 60.7462 47.7667 60.553L48.2073 60.8428C48.0988 61.0311 47.9952 61.2226 47.8966 61.4125ZM48.5295 60.2831L48.0971 59.9799C48.2089 59.7933 48.3256 59.6034 48.444 59.4169L48.8681 59.7334C48.753 59.9166 48.638 60.1015 48.5295 60.2831ZM49.2215 59.1936L48.8056 58.8655C48.9256 58.6872 49.0506 58.5057 49.1788 58.3241L49.5881 58.6622C49.4615 58.8405 49.3382 59.0204 49.2215 59.1936ZM49.9645 58.1425L49.5634 57.7943C49.6933 57.6194 49.8248 57.4445 49.9596 57.2729L50.3541 57.6311C50.221 57.7993 50.0911 57.9709 49.9645 58.1425ZM50.7503 57.1263L50.3624 56.7599C50.4988 56.5899 50.6369 56.4234 50.7766 56.2568L51.158 56.6316C51.0199 56.7932 50.8851 56.9598 50.7503 57.1263ZM51.5739 56.1418L51.1991 55.7604C51.3405 55.5971 51.4835 55.4339 51.6281 55.2723L51.998 55.6604C51.8533 55.8187 51.7136 55.9803 51.5739 56.1418ZM52.4254 55.184L52.0605 54.7909C52.2068 54.6309 52.3531 54.4743 52.501 54.3161L52.861 54.7142C52.7147 54.8708 52.5701 55.0274 52.4254 55.184ZM53.3016 54.2511L52.9449 53.8497L53.0534 53.7364C53.1668 53.6198 53.2802 53.5032 53.3936 53.3866L53.7471 53.793C53.6336 53.908 53.5219 54.0246 53.4084 54.1395L53.3016 54.2511ZM54.1975 53.3366L53.8473 52.9285C53.9986 52.7769 54.1498 52.6253 54.3027 52.4737L54.6512 52.8851C54.4983 53.0351 54.3487 53.185 54.1975 53.3366ZM55.1065 52.4337L54.7613 52.0206C54.9142 51.8707 55.0671 51.7207 55.22 51.5708L55.5652 51.9856C55.4106 52.1355 55.2578 52.2854 55.1065 52.4337ZM56.0222 51.5392L55.6786 51.1244L56.1372 50.6779L56.4808 51.0927L56.0222 51.5392ZM56.9411 50.6446L56.5975 50.2298C56.7504 50.0816 56.9033 49.9316 57.0545 49.7817L57.3997 50.1948C57.2468 50.3448 57.0939 50.4947 56.9411 50.6446ZM57.8567 49.7451L57.5098 49.3336C57.6611 49.1837 57.8123 49.0338 57.9635 48.8822L58.3137 49.292C58.1608 49.4435 58.0096 49.5935 57.8567 49.7451ZM58.7657 48.8338L58.414 48.4274C58.5636 48.2758 58.7131 48.1225 58.8611 47.9693L59.2162 48.3724C59.0666 48.5273 58.917 48.6806 58.7657 48.8338ZM59.6617 47.906L59.3016 47.5062C59.448 47.3513 59.5943 47.1963 59.7389 47.0381L60.1022 47.4329C59.9575 47.5911 59.8112 47.7494 59.6617 47.906Z" fill="#E7703D"/>
<path d="M19.2769 74.5993C19.2293 74.3828 19.18 74.1679 19.1306 73.953L19.6304 73.8164C19.6813 74.033 19.7307 74.2512 19.7783 74.4694L19.2769 74.5993ZM18.9745 73.31C18.9186 73.0834 18.8627 72.8752 18.8085 72.672L19.3016 72.5137C19.3575 72.7203 19.4134 72.9335 19.4709 73.1634L18.9745 73.31ZM18.6276 72.0423C18.5619 71.8291 18.4945 71.6192 18.4271 71.4209L18.9087 71.2277C18.9794 71.4326 19.0485 71.6492 19.1159 71.8691L18.6276 72.0423ZM18.2035 70.8096C18.1246 70.6064 18.0408 70.4065 17.9553 70.2132L18.4189 69.97C18.5093 70.1716 18.5964 70.3798 18.6786 70.593L18.2035 70.8096ZM17.6758 69.6335C17.5772 69.4403 17.4736 69.252 17.3684 69.0738L17.8024 68.7723C17.9142 68.9605 18.0227 69.1587 18.1279 69.362L17.6758 69.6335ZM17.0282 68.5407C16.9082 68.3658 16.7816 68.1959 16.6534 68.0376L17.0413 67.6712C17.1794 67.8411 17.3125 68.0227 17.4408 68.2092L17.0282 68.5407ZM16.2424 67.5679C16.1027 67.4213 15.9514 67.2764 15.7969 67.1381L16.1224 66.7067C16.2884 66.8532 16.4495 67.0082 16.5991 67.1664L16.2424 67.5679ZM15.3202 66.7483C15.1607 66.6267 14.9914 66.5084 14.8172 66.3935L15.0835 65.917C15.2676 66.037 15.4468 66.1636 15.6161 66.2919L15.3202 66.7483ZM14.2928 66.0736C14.1202 65.9754 13.9377 65.8787 13.7503 65.7838L13.9673 65.2774C14.1629 65.3757 14.352 65.4773 14.5328 65.5789L14.2928 66.0736ZM13.1947 65.5206C13.0155 65.4406 12.8248 65.359 12.6276 65.279L12.8067 64.7576C13.0089 64.8393 13.2062 64.9225 13.3903 65.0058L13.1947 65.5206ZM12.0522 65.0575C11.8599 64.9858 11.6659 64.9159 11.4703 64.8476L11.6281 64.3162C11.8254 64.3845 12.0226 64.4561 12.2199 64.5294L12.0522 65.0575ZM10.8851 64.6494C10.6878 64.5844 10.4922 64.5194 10.2949 64.4544L10.4445 63.9214C10.6418 63.9864 10.839 64.0513 11.0363 64.1163L10.8851 64.6494Z" fill="#768E9E"/>
<defs>
<linearGradient id="paint0_linear_145_2225" x1="56.8845" y1="6.61162" x2="27.7673" y2="38.0246" gradientUnits="userSpaceOnUse">
<stop stop-color="#E7703D"/>
<stop offset="1" stop-color="#E7703D" stop-opacity="0"/>
</linearGradient>
</defs>
</svg>
