<svg width="16" height="24" viewBox="0 0 16 24" fill="none" xmlns="http://www.w3.org/2000/svg">
<g opacity="0.5">
<path d="M16 8.09988C16 12.5759 12.4208 16.1998 8 16.1998C3.58381 16.1998 0 12.5712 0 8.09988C0 3.62388 3.58381 0 8 0C12.4208 0 16 3.62388 16 8.09988Z" fill="#3F72AF"/>
<path d="M12.111 10.502H3.88904V20.5496H12.111V10.502Z" fill="#3F72AF"/>
<path d="M13.3041 20.1747C13.3041 19.8142 13.0868 19.5052 12.7816 19.3741C13.0914 19.2383 13.3041 18.934 13.3041 18.5735C13.3041 18.0912 12.9203 17.7026 12.444 17.7026H3.55152C3.07522 17.7026 2.69141 18.0912 2.69141 18.5735C2.69141 18.934 2.90412 19.243 3.21395 19.3741C2.90412 19.5052 2.69141 19.8142 2.69141 20.1747C2.69141 20.5353 2.90412 20.8443 3.21395 20.9754C2.90412 21.1065 2.69141 21.4155 2.69141 21.776C2.69141 22.2582 3.07522 22.6468 3.55152 22.6468H12.4394C12.9157 22.6468 13.2995 22.2582 13.2995 21.776C13.2995 21.4155 13.0822 21.1065 12.777 20.9754C13.0868 20.8443 13.3041 20.5353 13.3041 20.1747Z" fill="#3F72AF"/>
<path d="M11.482 21.5512C11.482 22.9043 10.3999 23.9999 9.0635 23.9999H6.70512C5.3687 23.9999 4.28662 22.9043 4.28662 21.5512C4.28662 20.1981 5.3687 19.1025 6.70512 19.1025H9.06812C10.3999 19.1072 11.482 20.2028 11.482 21.5512Z" fill="#3F72AF"/>
<path d="M8.24978 8.76953H7.75035H5.04053L7.50064 11.2604V17.6981H7.75035H8.24978H8.49949V11.2604L10.9596 8.76953H8.24978Z" fill="#424874" fill-opacity="0.2"/>
</g>
</svg>
