<svg width="27" height="24" viewBox="0 0 27 24" fill="none" xmlns="http://www.w3.org/2000/svg">
<g opacity="0.5">
<path d="M17.8381 3.94371C17.8381 6.11921 15.8573 7.88742 13.4079 7.88742C10.964 7.88742 8.97766 6.12417 8.97766 3.94371C8.97766 1.76821 10.9584 0 13.4079 0C15.8518 0.00496689 17.8381 1.76821 17.8381 3.94371Z" fill="#3F72AF"/>
<path d="M12.5151 6.46216L9.75877 8.64262C8.24669 9.83964 7.01917 12.2685 7.01917 14.0714V17.5383C7.01917 17.5383 5.91999 16.9224 4.55856 16.1675C3.19713 15.4075 1.59019 15.4373 0.970855 16.232C0.345937 17.0267 0.853683 18.189 2.09794 18.8297L4.35211 19.987C4.35211 19.987 3.37567 19.987 2.17605 19.987C0.976435 19.987 0 20.886 0 21.9936C0 23.1012 1.64041 24.0002 3.66582 24.0002H15.1989V6.46216H12.755" fill="#3F72AF"/>
<path d="M14.4794 6.4624L17.2357 8.64287C18.7478 9.83989 19.9753 12.2687 19.9753 14.0717V17.5386C19.9753 17.5386 21.0745 16.9227 22.436 16.1677C23.7974 15.4078 25.3987 15.4376 26.0237 16.2323C26.6486 17.027 26.1408 18.1892 24.8966 18.83L22.648 19.9872C22.648 19.9872 23.6244 19.9872 24.824 19.9872C26.0237 19.9872 27.0001 20.8862 27.0001 21.9939C27.0001 23.1015 25.3597 24.0005 23.3343 24.0005H11.8068V6.4624H14.2506" fill="#3F72AF"/>
</g>
</svg>
