<svg width="29" height="24" viewBox="0 0 29 24" fill="none" xmlns="http://www.w3.org/2000/svg">
<g opacity="0.5">
<path d="M27.497 9.95572C27.1651 9.70333 26.7943 9.51187 26.4017 9.38133C26.9678 8.48058 27.0133 7.26653 26.5145 6.28093C26.0373 5.33884 25.0701 4.62303 23.9878 4.41416C23.1138 4.24663 22.179 4.3924 21.3549 4.81449C21.5414 4.03993 21.4308 3.16964 21.0361 2.41684C20.6153 1.614 19.8866 0.943879 18.9822 0.52614C18.1819 0.156268 17.2624 -0.0199633 16.2474 0.00179392C15.1434 0.0257269 14.1219 0.291162 13.2913 0.767645C12.3565 1.30505 11.6408 2.1427 11.3198 3.06956C11.1789 3.07173 11.0379 3.08697 10.9012 3.11525C10.7668 2.60396 10.4263 2.12747 9.94264 1.79023C9.5002 1.48128 8.94281 1.27894 8.28349 1.18974C7.3097 1.05702 6.33374 1.20497 5.53779 1.6053C4.65508 2.04915 3.97841 2.80195 3.68346 3.67659C3.38199 4.56646 3.49911 5.55858 3.98492 6.30268C3.07186 6.07641 2.06119 6.26787 1.29994 6.82703C0.473623 7.43188 -0.0230345 8.43706 0.00082239 9.44877C0.0246793 10.4692 0.597243 11.4613 1.46043 11.9791C1.54935 12.0314 1.64044 12.0792 1.7337 12.1206C1.12643 13.017 1.02667 14.2528 1.49296 15.2318C1.97227 16.2414 3.04366 16.955 4.15625 17.0094C4.19529 17.0116 4.23433 17.0116 4.27337 17.0116C4.78955 17.0116 5.39681 16.8462 5.74816 16.3937C5.78503 17.2205 6.24699 18.0342 6.97354 18.5215C7.48321 18.8631 8.1165 19.0437 8.76497 19.0437C9.05559 19.0437 9.34838 19.0067 9.63466 18.9349C10.2376 18.7804 10.7516 18.4845 11.1203 18.0799C11.3328 17.8449 11.4933 17.5707 11.5909 17.2814C11.8121 17.9885 12.2372 18.6086 12.8098 19.0328C13.3412 19.4266 13.9831 19.6333 14.6164 19.6333C14.881 19.6333 15.1456 19.5942 15.3972 19.5202C15.4124 19.5398 15.4319 19.5572 15.4579 19.5659C17.0802 20.1599 18.4639 21.4631 19.1579 23.0492L19.1861 23.1167C19.2902 23.3582 19.4095 23.6323 19.6394 23.8129C19.7977 23.9369 19.9994 23.9978 20.2011 23.9978C20.418 23.9978 20.637 23.9282 20.8127 23.7868C21.0534 23.5953 21.2139 23.2907 21.3072 22.8577C21.3289 22.7598 21.3462 22.6598 21.3636 22.5597C21.3961 22.3682 21.4286 22.1876 21.4872 22.0157C22.0424 22.2899 22.6215 22.3617 23.0683 22.3617C23.1181 22.3617 23.1658 22.3617 23.2114 22.3595C23.8902 22.3377 24.5062 22.1572 24.992 21.8395C25.5906 21.4479 26.0265 20.8234 26.187 20.125C26.3475 19.4266 26.2304 18.6738 25.866 18.0581C25.8595 18.0494 25.8508 18.0407 25.8443 18.0342C25.879 18.0146 25.9137 17.9928 25.9484 17.9711C26.5318 17.5794 26.8441 16.8332 26.7249 16.113C26.7205 16.0825 26.714 16.0521 26.7075 16.0195C26.7227 16.0238 26.7379 16.0282 26.7552 16.0282C26.7617 16.0282 26.7704 16.0282 26.7769 16.026C27.343 15.939 27.8917 15.6169 28.2842 15.1383C28.6421 14.7053 28.8763 14.1483 28.9631 13.5326C29.1518 12.1815 28.577 10.7803 27.497 9.95572ZM21.0751 22.5096C21.0578 22.6054 21.0426 22.7011 21.0209 22.7968C20.9428 23.1623 20.8149 23.4126 20.6305 23.5605C20.3963 23.7476 20.0384 23.7563 19.815 23.5823C19.6415 23.4474 19.5483 23.2298 19.4485 23.0013L19.4182 22.9317C18.7241 21.3434 17.3708 20.0315 15.768 19.3766C16.3384 19.1068 16.7917 18.6347 17.039 18.0755C17.1192 18.3649 17.2515 18.6434 17.4337 18.8892C17.8458 19.4462 18.5007 19.8531 19.2338 20.001C19.4312 20.0402 19.6285 20.0598 19.8215 20.0598C19.9083 20.0598 19.9907 20.0554 20.0753 20.0467C20.0753 20.0511 20.0731 20.0554 20.0731 20.0598C20.1252 20.7538 20.5394 21.4196 21.1814 21.8395C21.1966 21.8482 21.2118 21.8569 21.2269 21.8678C21.151 22.081 21.112 22.2986 21.0751 22.5096Z" fill="#3F72AF"/>
<path d="M27.497 9.95574C27.1651 9.70336 26.7943 9.51189 26.4017 9.38352C26.9678 8.48278 27.0133 7.26872 26.5145 6.28312C26.0373 5.34104 25.0701 4.62522 23.9878 4.41635C23.1138 4.24882 22.179 4.3946 21.3549 4.81669C21.5414 4.04213 21.4308 3.17184 21.0361 2.41904C20.6153 1.6162 19.8866 0.946079 18.9822 0.528341C18.1819 0.158468 17.2624 -0.0177661 16.2474 0.00399116C15.1434 0.0279241 14.1219 0.293363 13.2913 0.769846C12.3565 1.30725 11.6408 2.1449 11.3198 3.07176C11.1789 3.07394 11.0379 3.08916 10.9012 3.11745C10.7668 2.60615 10.4263 2.12967 9.94263 1.79243C9.5002 1.48348 8.94281 1.28114 8.28349 1.19193C7.3097 1.05921 6.33374 1.20716 5.53779 1.6075C4.65508 2.05134 3.97841 2.80414 3.68346 3.67878C3.38199 4.56865 3.49911 5.56078 3.98492 6.30488C3.07185 6.0786 2.06119 6.27007 1.29994 6.82923C0.473623 7.43408 -0.0230345 8.43926 0.00082239 9.45097C0.0246793 10.4714 0.597243 11.4635 1.46043 11.9813C1.54935 12.0336 1.64044 12.0814 1.7337 12.1228C1.12643 13.0192 1.02667 14.255 1.49296 15.234C1.97227 16.2436 3.04366 16.9572 4.15625 17.0116C4.19529 17.0138 4.23433 17.0138 4.27337 17.0138C4.78955 17.0138 5.39681 16.8484 5.74816 16.3959C5.78503 17.2226 6.24699 18.0364 6.97354 18.5237C7.48321 18.8653 8.1165 19.0459 8.76497 19.0459C9.05559 19.0459 9.34838 19.0089 9.63466 18.9371C10.2376 18.7826 10.7516 18.4867 11.1203 18.0821C11.3328 17.8471 11.4933 17.5729 11.5931 17.2836C11.8143 17.9907 12.2394 18.6108 12.812 19.035C13.3433 19.4288 13.9853 19.6355 14.6186 19.6355C14.8832 19.6355 15.1478 19.5964 15.3993 19.5224C15.4145 19.542 15.4341 19.5594 15.4601 19.5681C17.0823 20.1621 18.466 21.4653 19.1601 23.0514L19.1883 23.1189C19.2924 23.3604 19.4116 23.6345 19.6415 23.8151C19.7999 23.9391 20.0016 24 20.2033 24C20.4201 24 20.6392 23.9304 20.8149 23.789C21.0556 23.5975 21.2161 23.2929 21.3093 22.8599C21.331 22.762 21.3484 22.662 21.3657 22.5619C21.3983 22.3704 21.4308 22.1898 21.4894 22.0179C22.0446 22.2943 22.6236 22.3639 23.0704 22.3639C23.1203 22.3639 23.168 22.3639 23.2136 22.3617C23.8924 22.3399 24.5083 22.1594 24.9942 21.8417C25.5927 21.4501 26.0287 20.8256 26.1892 20.1272C26.3497 19.4288 26.2325 18.676 25.8682 18.0603C25.8617 18.0516 25.853 18.0429 25.8465 18.0364C25.8812 18.0168 25.9159 17.995 25.9506 17.9733C26.534 17.5816 26.8463 16.8354 26.727 16.1152C26.7227 16.0847 26.7162 16.0543 26.7097 16.0217C26.7249 16.026 26.74 16.0304 26.7574 16.0304C26.7639 16.0304 26.7726 16.0304 26.7791 16.0282C27.3451 15.9411 27.8938 15.6191 28.2864 15.1405C28.6443 14.7075 28.8785 14.1505 28.9652 13.5348C29.1518 12.1815 28.577 10.7803 27.497 9.95574ZM21.0751 22.5097C21.0578 22.6054 21.0426 22.7011 21.0209 22.7969C20.9428 23.1624 20.8149 23.4126 20.6305 23.5605C20.3963 23.7476 20.0384 23.7563 19.815 23.5823C19.6415 23.4474 19.5483 23.2298 19.4485 23.0014L19.4182 22.9317C18.7241 21.3435 17.3708 20.0315 15.768 19.3766C16.3384 19.1068 16.7917 18.6347 17.039 18.0755C17.1192 18.3649 17.2515 18.6434 17.4337 18.8892C17.8458 19.4462 18.5007 19.8531 19.2338 20.001C19.4312 20.0402 19.6285 20.0598 19.8215 20.0598C19.9083 20.0598 19.9907 20.0554 20.0753 20.0467C20.0753 20.0511 20.0731 20.0554 20.0731 20.0598C20.1252 20.7538 20.5394 21.4196 21.1814 21.8395C21.1966 21.8482 21.2118 21.8569 21.2269 21.8678C21.151 22.081 21.112 22.2986 21.0751 22.5097ZM28.6746 13.4891C28.5944 14.0526 28.3818 14.5596 28.0587 14.9512C27.7117 15.3733 27.2259 15.6605 26.7314 15.7366C26.6945 15.7432 26.6641 15.7627 26.6424 15.7888C26.4538 15.2384 26.0265 14.7706 25.4713 14.5248C25.4691 14.5226 25.4648 14.5248 25.4626 14.5226C25.712 13.9721 25.6882 13.2911 25.3715 12.7733C25.3303 12.7059 25.2414 12.6841 25.172 12.7254C25.1048 12.7668 25.0831 12.856 25.1243 12.9256C25.4539 13.4652 25.4062 14.2158 25.0115 14.7075C24.6168 15.2014 23.8967 15.4103 23.3003 15.2036C23.2244 15.1775 23.142 15.2188 23.116 15.2928C23.0899 15.3689 23.1311 15.4516 23.2049 15.4777C23.3871 15.5408 23.5801 15.5713 23.7731 15.5713C24.3283 15.5713 24.8879 15.3232 25.2349 14.8881C25.2653 14.8489 25.2934 14.8098 25.3216 14.7684C25.3303 14.775 25.339 14.7837 25.3498 14.788C25.9137 15.0382 26.3388 15.5756 26.4342 16.1544C26.5318 16.7549 26.2651 17.4011 25.7814 17.7252C25.2826 18.0603 24.5734 18.0298 24.1353 17.6534C24.0746 17.6012 23.9835 17.6078 23.9314 17.6708C23.8794 17.7318 23.8881 17.8231 23.9488 17.8754C24.2372 18.1212 24.619 18.2452 25.0028 18.2452C25.2045 18.2452 25.4062 18.2104 25.5949 18.143C25.5971 18.1647 25.6014 18.1843 25.6144 18.2039C25.9419 18.7565 26.0482 19.431 25.9029 20.0576C25.7576 20.6842 25.3672 21.2434 24.8315 21.5937C24.3891 21.883 23.8252 22.0462 23.1984 22.068C22.7017 22.0854 21.9773 22.0158 21.3419 21.6002C20.7845 21.2347 20.4093 20.6364 20.3659 20.0424C20.3659 20.0293 20.3594 20.0206 20.3572 20.0098C20.7476 19.9314 21.1011 19.7682 21.3809 19.5224C21.9969 18.9806 22.1682 18.0277 21.767 17.3967C21.7236 17.3293 21.6347 17.3097 21.5674 17.3532C21.5002 17.3967 21.4807 17.4859 21.5241 17.5534C21.8516 18.069 21.7019 18.8544 21.1901 19.3048C20.7281 19.7117 20.0211 19.8661 19.2967 19.7204C18.633 19.5855 18.0431 19.2221 17.6723 18.7217C17.2797 18.1908 17.1431 17.4903 17.3122 16.8963C17.3339 16.8201 17.2906 16.7396 17.2125 16.7157C17.1366 16.6939 17.0563 16.7375 17.0325 16.8158C16.9869 16.9768 16.9609 17.1465 16.9522 17.3162C16.95 17.3249 16.9457 17.3314 16.9457 17.3401C16.8611 18.1604 16.2343 18.9328 15.4189 19.2156C14.6273 19.4897 13.6925 19.3331 12.9811 18.8044C12.3131 18.3083 11.849 17.4859 11.7362 16.6004C11.7319 16.5721 11.7189 16.5482 11.7015 16.5286C11.6994 16.5047 11.7015 16.4807 11.6994 16.459C11.6929 16.3785 11.6213 16.3197 11.541 16.3284C11.4608 16.335 11.4022 16.4068 11.4109 16.4873C11.4543 16.9703 11.2656 17.4946 10.9056 17.8928C10.5759 18.2561 10.1118 18.5216 9.56309 18.663C8.71292 18.8806 7.80636 18.7413 7.13403 18.2909C6.45302 17.834 6.0301 17.0573 6.03444 16.2871C6.18409 16.3219 6.34025 16.3393 6.49857 16.3393C6.50074 16.3393 6.50507 16.3393 6.50724 16.3393C7.00606 16.3371 7.5396 16.1674 8.04493 15.8476C8.11216 15.8041 8.13385 15.7149 8.09047 15.6474C8.0471 15.58 7.95817 15.5582 7.89094 15.6017C7.43115 15.8933 6.95184 16.0478 6.50724 16.0499C6.00191 16.0499 5.52478 15.8476 5.23849 15.5017C4.93269 15.134 4.86545 14.59 5.078 14.2093C5.11703 14.1397 5.09101 14.0504 5.02161 14.0113C4.95221 13.9721 4.86329 13.9982 4.82425 14.0679C4.55098 14.5574 4.63123 15.2232 5.01511 15.6888C5.16692 15.8715 5.36428 16.0195 5.58767 16.1304C5.29922 16.6091 4.67026 16.7549 4.17144 16.7309C3.16077 16.6809 2.19132 16.0325 1.75539 15.1187C1.3238 14.2115 1.4279 13.0605 2.01131 12.2446C2.31711 12.349 2.63809 12.4012 2.95907 12.4012C3.45139 12.4012 3.94155 12.2794 4.37097 12.0336C4.44037 11.9944 4.46423 11.9052 4.42519 11.8356C4.38615 11.7659 4.29723 11.742 4.22783 11.7812C3.43404 12.2337 2.40603 12.2185 1.61225 11.7442C0.833646 11.2786 0.315301 10.38 0.293613 9.4575C0.271925 8.53934 0.725205 7.62772 1.47561 7.07726C2.22602 6.5268 3.23885 6.3658 4.12155 6.65735C4.19746 6.68346 4.27988 6.63994 4.30374 6.56379C4.31675 6.52245 4.31024 6.48111 4.29073 6.4463C4.33627 6.39626 4.34494 6.32011 4.30374 6.26354C3.80491 5.58472 3.67261 4.63393 3.96106 3.7854C4.23216 2.98473 4.85461 2.29068 5.67008 1.88164C6.41615 1.50742 7.33139 1.37035 8.2488 1.49436C8.8604 1.57704 9.37658 1.76198 9.77997 2.04482C10.2094 2.34507 10.5109 2.76498 10.6258 3.21101C10.4675 3.26757 10.3178 3.34372 10.1769 3.43945C9.62599 3.81585 9.28115 4.4664 9.27898 5.13434C9.27898 5.21484 9.34404 5.28012 9.42212 5.28012C9.50236 5.28012 9.56743 5.21484 9.56743 5.13652C9.5696 4.56213 9.86456 4.00297 10.3395 3.68096C10.8123 3.35678 11.4391 3.28498 11.9726 3.49385C12.5062 3.70054 12.9204 4.17702 13.0527 4.73619C13.0722 4.81451 13.1503 4.86238 13.2262 4.84497C13.3043 4.82757 13.352 4.74924 13.3346 4.67091C13.1807 4.02037 12.6992 3.46556 12.0767 3.22406C11.9293 3.16749 11.7774 3.12833 11.6235 3.10875C11.9336 2.27762 12.5907 1.52699 13.4388 1.03963C14.226 0.587083 15.1998 0.3347 16.256 0.312943C17.2277 0.291186 18.1039 0.458716 18.8629 0.809007C19.7088 1.20064 20.3898 1.82507 20.7802 2.57134C21.1901 3.3546 21.266 4.27276 20.9905 5.04296C20.9645 5.06037 20.9385 5.0756 20.9125 5.093C20.0688 4.66003 18.9735 4.82321 18.2969 5.49116C18.2405 5.54773 18.2383 5.63911 18.2947 5.69568C18.3511 5.75225 18.4422 5.75442 18.4986 5.69785C19.0863 5.11911 20.0775 4.97334 20.804 5.36279C21.5306 5.75007 21.9665 6.65517 21.8147 7.46889C21.7995 7.54722 21.8516 7.62337 21.9296 7.6386C21.9383 7.64077 21.947 7.64077 21.9557 7.64077C22.0251 7.64077 22.0858 7.59291 22.0988 7.52111C22.2549 6.67475 21.8819 5.774 21.1944 5.26924C21.2031 5.26053 21.2118 5.24965 21.2204 5.23878C22.0489 4.73401 23.027 4.54255 23.9314 4.7166C24.9269 4.90807 25.8161 5.56513 26.2542 6.4289C26.7118 7.334 26.6685 8.45014 26.1415 9.26821C26.1306 9.28344 26.1263 9.30085 26.1219 9.31825C25.313 9.11809 24.4433 9.17683 23.6712 9.51407C23.5974 9.5467 23.5649 9.63156 23.5974 9.70553C23.63 9.77951 23.7146 9.81214 23.7883 9.7795C24.9182 9.28344 26.3388 9.45315 27.3213 10.2016C28.3037 10.937 28.8481 12.262 28.6746 13.4891Z" fill="#BCC3D6" fill-opacity="0.5"/>
<path d="M11.1311 8.4134C11.5345 8.8703 11.6473 9.58394 11.4065 10.1431C11.374 10.2171 11.4087 10.3019 11.4824 10.3346C11.5019 10.3433 11.5215 10.3454 11.5388 10.3454C11.5952 10.3454 11.6473 10.3128 11.6711 10.2584C11.9596 9.58611 11.8294 8.76804 11.348 8.21976C10.8643 7.67148 10.0705 7.44303 9.37001 7.64972C8.66948 7.85641 8.12511 8.48085 8.0145 9.20318C8.00149 9.28151 8.05571 9.35766 8.13595 9.36854C8.21403 9.38159 8.28994 9.3272 8.30079 9.2467C8.39404 8.64185 8.86684 8.10009 9.45025 7.92821C10.0358 7.75633 10.7277 7.95432 11.1311 8.4134Z" fill="#BCC3D6" fill-opacity="0.5"/>
<path d="M19.8497 11.0265C19.7694 11.0352 19.713 11.1091 19.7239 11.1875C19.7325 11.268 19.8041 11.3245 19.8844 11.3137C20.6912 11.2179 21.5478 11.5878 22.0163 12.234C22.4978 12.8998 22.565 13.8244 22.1833 14.5359C21.7951 15.2561 20.9688 15.6956 20.1728 15.6085C20.0926 15.5998 20.021 15.6564 20.0123 15.7369C20.0036 15.8174 20.06 15.8892 20.1403 15.8979C20.2184 15.9066 20.2964 15.911 20.3745 15.911C21.2095 15.911 22.0337 15.4258 22.437 14.6751C22.8708 13.868 22.7971 12.8193 22.2505 12.0643C21.7148 11.3245 20.7736 10.9177 19.8497 11.0265Z" fill="#BCC3D6" fill-opacity="0.5"/>
<path d="M19.4571 13.8024C19.4007 13.7458 19.3096 13.7458 19.2533 13.8024C18.8108 14.2506 18.1472 14.4747 17.5247 14.3855C16.9023 14.2963 16.3275 13.896 16.0282 13.3412C15.7528 12.8299 15.7138 12.1967 15.9155 11.6528C16.2169 11.8007 16.5531 11.8791 16.8871 11.8791C17.0628 11.8791 17.2406 11.8573 17.4119 11.8138C18.0192 11.6593 18.6525 11.1154 18.6286 10.4105C18.6265 10.33 18.5592 10.2669 18.479 10.2712C18.3987 10.2734 18.3359 10.3408 18.3402 10.4213C18.3597 10.9718 17.8414 11.4048 17.3425 11.5331C16.7483 11.6854 16.0955 11.5266 15.6335 11.1219C15.1737 10.7172 14.9308 10.0863 15.0024 9.47707C15.0111 9.39657 14.9547 9.32477 14.8744 9.31607C14.7942 9.30737 14.7226 9.36393 14.7139 9.44444C14.6315 10.1472 14.9113 10.8739 15.4405 11.3417C15.5099 11.4026 15.5836 11.457 15.6595 11.507C15.447 12.0422 15.4448 12.6558 15.6444 13.1954L15.7918 13.5152C16.1388 14.1309 16.783 14.5748 17.4813 14.6749C17.5854 14.6901 17.6895 14.6966 17.7958 14.6966C18.4096 14.6966 19.0255 14.4464 19.4571 14.0091C19.5157 13.9504 19.5135 13.859 19.4571 13.8024Z" fill="#BCC3D6" fill-opacity="0.5"/>
<path d="M12.8597 14.179C12.8488 14.0702 12.7274 14.0115 12.6363 14.0724C12.3413 14.2704 11.9856 14.3879 11.6321 14.4031C11.1962 14.4205 10.7451 14.2791 10.3959 14.018C10.2289 13.894 10.025 13.6916 9.99685 13.4327C9.98818 13.3522 9.9166 13.2956 9.83636 13.3043C9.75611 13.3131 9.69972 13.3848 9.7084 13.4654C9.74961 13.8243 10.0099 14.0898 10.2224 14.2486C10.3113 14.3161 10.4068 14.377 10.5044 14.4292C10.8514 14.6163 11.2461 14.7077 11.643 14.6925C12.0551 14.6751 12.4563 14.5423 12.7968 14.3139C12.8423 14.2856 12.8662 14.2334 12.8597 14.179Z" fill="#BCC3D6" fill-opacity="0.5"/>
<path d="M13.6427 7.18172C13.7099 7.22524 13.7988 7.20783 13.8422 7.14038C14.3562 6.3593 15.4731 6.01554 16.3363 6.37235C17.1973 6.72917 17.7482 7.76699 17.5617 8.68297C17.5465 8.7613 17.5964 8.83744 17.6745 8.85485C17.6853 8.85703 17.694 8.85703 17.7027 8.85703C17.7699 8.85703 17.8306 8.80916 17.8436 8.74172C18.0605 7.67779 17.4467 6.5203 16.4447 6.10474C15.4449 5.68918 14.1935 6.07428 13.5993 6.98155C13.5559 7.04683 13.5754 7.13603 13.6427 7.18172Z" fill="#BCC3D6" fill-opacity="0.5"/>
</g>
</svg>
