<svg width="61" height="61" viewBox="0 0 61 61" fill="none" xmlns="http://www.w3.org/2000/svg">
<path d="M19.0938 21.375C19.0938 16.7554 22.8387 13.0104 27.4583 13.0104C32.078 13.0104 35.8229 16.7554 35.8229 21.375C35.8229 25.9946 32.078 29.7396 27.4583 29.7396C22.8387 29.7396 19.0938 25.9946 19.0938 21.375Z" fill="#A6B1E1"/>
<path fill-rule="evenodd" clip-rule="evenodd" d="M30.3624 0.84375H30.6376C36.2238 0.843726 40.6026 0.843706 44.0766 1.22009C47.6217 1.60419 50.4942 2.40207 52.9468 4.18396C54.4316 5.26271 55.7373 6.56844 56.816 8.05322C58.5979 10.5058 59.3958 13.3783 59.7799 16.9234C60.1563 20.3974 60.1563 24.7761 60.1563 30.3621V30.5182C60.1563 33.3601 60.1563 35.8783 60.1101 38.1058C59.9745 44.6578 59.4619 49.305 56.816 52.9468C55.7373 54.4316 54.4316 55.7373 52.9468 56.816C50.4942 58.5979 47.6217 59.3958 44.0766 59.7799C40.6026 60.1563 36.2239 60.1563 30.6379 60.1563H30.3623C24.7763 60.1563 20.3974 60.1563 16.9234 59.7799C13.3783 59.3958 10.5058 58.5979 8.05322 56.816C6.62232 55.7764 5.35772 54.526 4.3023 53.1077C4.26255 53.0543 4.22311 53.0007 4.18396 52.9468C2.40207 50.4942 1.60419 47.6217 1.22009 44.0766C0.843706 40.6026 0.843726 36.2238 0.84375 30.6376V30.3624C0.843726 24.7762 0.843706 20.3974 1.22009 16.9234C1.60419 13.3783 2.40207 10.5058 4.18396 8.05322C5.26271 6.56844 6.56844 5.26271 8.05322 4.18396C10.5058 2.40207 13.3783 1.60419 16.9234 1.22009C20.3974 0.843706 24.7762 0.843726 30.3624 0.84375ZM17.4149 5.75605C14.2579 6.09808 12.2802 6.75247 10.735 7.8751C9.63755 8.67244 8.67244 9.63755 7.8751 10.735C6.75247 12.2802 6.09808 14.2579 5.75605 17.4149C5.40938 20.6146 5.40625 24.7465 5.40625 30.5C5.40625 36.2535 5.40938 40.3854 5.75605 43.5851C5.87838 44.7142 6.04067 45.6925 6.25004 46.5541C7.08762 44.9439 7.78182 43.7586 8.60435 42.7462C11.8435 38.7592 16.6716 36.3978 21.8074 36.2888C23.7294 36.248 25.7765 36.6576 29.1196 37.3266L29.4996 37.4027C30.0231 36.5357 30.4852 35.8404 30.9676 35.2468C36.7813 28.0932 47.1493 26.68 54.6655 32.0166C54.9656 32.2297 55.2708 32.4696 55.5928 32.7427C55.5937 32.0225 55.5938 31.2756 55.5938 30.5C55.5938 24.7465 55.5906 20.6146 55.244 17.4149C54.9019 14.2579 54.2475 12.2802 53.1249 10.735C52.3276 9.63755 51.3625 8.67244 50.265 7.8751C48.7198 6.75247 46.7421 6.09808 43.5851 5.75605C40.3854 5.40938 36.2535 5.40625 30.5 5.40625C24.7465 5.40625 20.6146 5.40938 17.4149 5.75605Z" fill="#A6B1E1"/>
</svg>
