<svg width="16" height="16" viewBox="0 0 16 16" fill="none" xmlns="http://www.w3.org/2000/svg">
<path fill-rule="evenodd" clip-rule="evenodd" d="M3.66556 5.06362C3.38479 2.81739 5.13624 0.833374 7.39994 0.833374H8.53522C10.8013 0.833374 12.5546 2.81949 12.2736 5.06809L12.2305 5.41271C12.1471 6.07946 12.3895 6.7456 12.8819 7.20284L12.9112 7.23002C13.9867 8.22885 14.1954 9.85331 13.4073 11.0916C12.8923 11.9009 12.0287 12.4157 11.0816 12.4906L10.9541 12.7091C10.2789 13.8666 9.22691 14.5 8.12222 14.5C7.01753 14.5 5.96553 13.8666 5.29033 12.7091L5.16482 12.4939C4.03728 12.4238 3.02724 11.7522 2.52981 10.7267L2.4609 10.5847C1.89647 9.42103 2.16053 8.02507 3.11099 7.148C3.56966 6.72475 3.79588 6.10615 3.71847 5.48685L3.66556 5.06362ZM6.34671 12.5C6.85294 13.1918 7.50813 13.5 8.12222 13.5C8.73631 13.5 9.3915 13.1918 9.89773 12.5H6.34671Z" fill="#E7703D"/>
</svg>
