<svg width="16" height="16" viewBox="0 0 16 16" fill="none" xmlns="http://www.w3.org/2000/svg">
<path fill-rule="evenodd" clip-rule="evenodd" d="M3.66544 5.06362C3.38466 2.81739 5.13612 0.833374 7.39982 0.833374H8.5351C10.8012 0.833374 12.5545 2.81949 12.2734 5.06809L12.2304 5.41271C12.147 6.07946 12.3894 6.7456 12.8818 7.20284L12.911 7.23002C13.9866 8.22885 14.1953 9.85331 13.4072 11.0916C12.8922 11.9009 12.0286 12.4157 11.0815 12.4906L10.954 12.7091C10.2788 13.8666 9.22679 14.5 8.1221 14.5C7.01741 14.5 5.96541 13.8666 5.29021 12.7091L5.16469 12.4939C4.03716 12.4238 3.02712 11.7522 2.52968 10.7267L2.46078 10.5847C1.89635 9.42103 2.16041 8.02507 3.11087 7.148C3.56954 6.72475 3.79576 6.10615 3.71834 5.48685L3.66544 5.06362ZM6.34659 12.5C6.85282 13.1918 7.50801 13.5 8.1221 13.5C8.73619 13.5 9.39138 13.1918 9.89761 12.5H6.34659Z" fill="#3F72AF"/>
</svg>
