<svg width="19" height="20" viewBox="0 0 19 20" fill="none" xmlns="http://www.w3.org/2000/svg">
<path d="M12.1428 3.03236C10.3639 2.01945 8.98217 1.23265 7.85998 0.722235C6.73358 0.209906 5.75582 -0.0794199 4.80507 0.0191328C3.29615 0.175546 1.92249 0.956331 1.02731 2.1715C0.46187 2.93905 0.226441 3.92419 0.112989 5.14382C-9.17469e-06 6.35857 -5.13038e-06 7.93299 7.29581e-08 9.9578V10.0422C-5.25281e-06 12.067 -9.39659e-06 13.6414 0.112989 14.8562C0.226441 16.0758 0.46187 17.0609 1.02731 17.8285C1.92249 19.0437 3.29615 19.8245 4.80507 19.9809C5.75582 20.0794 6.73357 19.7901 7.85997 19.2778C8.98216 18.7674 10.3639 17.9806 12.1428 16.9677L12.215 16.9265C13.9937 15.9137 15.3755 15.1269 16.385 14.4235C17.3973 13.7182 18.1435 13.0259 18.5347 12.1592C19.1551 10.785 19.1551 9.215 18.5347 7.84076C18.1435 6.97406 17.3973 6.28183 16.385 5.57646C15.3755 4.8731 13.9937 4.08628 12.215 3.07345L12.1428 3.03236Z" fill="#424874"/>
</svg>
