<svg width="19" height="20" viewBox="0 0 19 20" fill="none" xmlns="http://www.w3.org/2000/svg">
<path d="M12.0733 3.20654C10.3412 2.21896 8.9958 1.45183 7.90313 0.954178C6.80638 0.454658 5.85435 0.172566 4.92862 0.268654C3.45941 0.421157 2.1219 1.18242 1.25027 2.36721C0.699716 3.11557 0.470482 4.07608 0.360016 5.26521C0.249991 6.44959 0.249995 7.98465 0.25 9.95884V10.0411C0.249995 12.0153 0.249991 13.5504 0.360015 14.7347C0.470482 15.9239 0.699715 16.8844 1.25027 17.6327C2.1219 18.8175 3.45941 19.5788 4.92862 19.7313C5.85435 19.8274 6.80638 19.5453 7.90313 19.0458C8.99579 18.5481 10.3412 17.781 12.0732 16.7934L12.1435 16.7533C13.8755 15.7658 15.2209 14.9987 16.2038 14.3129C17.1894 13.6252 17.916 12.9503 18.297 12.1052C18.901 10.7654 18.901 9.2346 18.297 7.89473C17.916 7.04969 17.1894 6.37477 16.2038 5.68703C15.2209 5.00126 13.8755 4.23412 12.1435 3.24661L12.0733 3.20654Z" fill="#E7703D"/>
</svg>
