<svg width="52" height="52" viewBox="0 0 52 52" fill="none" xmlns="http://www.w3.org/2000/svg">
<path d="M17.875 19.5C17.875 16.2093 20.5426 13.5417 23.8333 13.5417C27.124 13.5417 29.7917 16.2093 29.7917 19.5C29.7917 22.7907 27.124 25.4583 23.8333 25.4583C20.5426 25.4583 17.875 22.7907 17.875 19.5Z" fill="#A6B1E1"/>
<path fill-rule="evenodd" clip-rule="evenodd" d="M25.902 4.875H26.098C30.0772 4.87498 33.1963 4.87497 35.671 5.14308C38.1963 5.41668 40.2425 5.98504 41.9895 7.25433C43.0471 8.02275 43.9772 8.95286 44.7457 10.0105C46.015 11.7575 46.5833 13.8037 46.8569 16.329C47.125 18.8036 47.125 21.9227 47.125 25.9017V26.0129C47.125 28.0373 47.125 29.8311 47.0922 31.4178C46.9956 36.085 46.6304 39.3954 44.7457 41.9895C43.9772 43.0471 43.0471 43.9772 41.9895 44.7457C40.2425 46.015 38.1963 46.5833 35.671 46.8569C33.1964 47.125 30.0773 47.125 26.0983 47.125H25.9019C21.9229 47.125 18.8036 47.125 16.329 46.8569C13.8037 46.5833 11.7575 46.015 10.0105 44.7457C8.99124 44.0051 8.09043 43.1144 7.33863 42.1041C7.31031 42.0661 7.28221 42.0279 7.25433 41.9895C5.98504 40.2425 5.41668 38.1963 5.14308 35.671C4.87497 33.1963 4.87498 30.0772 4.875 26.098V25.902C4.87498 21.9228 4.87497 18.8037 5.14308 16.329C5.41668 13.8037 5.98504 11.7575 7.25433 10.0105C8.02276 8.95286 8.95286 8.02276 10.0105 7.25433C11.7575 5.98504 13.8037 5.41668 16.329 5.14308C18.8037 4.87497 21.9228 4.87498 25.902 4.875ZM16.6791 8.37417C14.4303 8.61781 13.0215 9.08395 11.9208 9.88364C11.1391 10.4516 10.4516 11.1391 9.88364 11.9208C9.08395 13.0215 8.61781 14.4303 8.37417 16.6791C8.12723 18.9583 8.125 21.9016 8.125 26C8.125 30.0984 8.12723 33.0417 8.37417 35.3209C8.46131 36.1252 8.57691 36.8221 8.72606 37.4358C9.32269 36.2888 9.81719 35.4445 10.4031 34.7233C12.7104 31.8833 16.1497 30.2012 19.808 30.1235C21.1771 30.0944 22.6353 30.3863 25.0167 30.8628L25.2874 30.917C25.6603 30.2994 25.9894 29.8041 26.3331 29.3813C30.4743 24.2856 37.8597 23.2789 43.2138 27.0803C43.4276 27.2321 43.645 27.403 43.8743 27.5975C43.875 27.0845 43.875 26.5525 43.875 26C43.875 21.9016 43.8728 18.9583 43.6258 16.6791C43.3822 14.4303 42.9161 13.0215 42.1164 11.9208C41.5484 11.1391 40.8609 10.4516 40.0792 9.88364C38.9785 9.08395 37.5697 8.61781 35.3209 8.37417C33.0417 8.12723 30.0984 8.125 26 8.125C21.9016 8.125 18.9583 8.12723 16.6791 8.37417Z" fill="#A6B1E1"/>
</svg>
