<svg width="28" height="24" viewBox="0 0 28 24" fill="none" xmlns="http://www.w3.org/2000/svg">
<g opacity="0.5">
<path d="M27.9941 18.1519H0V20.6305H27.9941V18.1519Z" fill="#3F72AF"/>
<path d="M1.73362 13.3669H0V24.0001H1.73362V13.3669Z" fill="#3F72AF"/>
<path d="M28 20.1519H26.2664V24H28V20.1519Z" fill="#3F72AF"/>
<path d="M0.995134 18.5381C0.995134 18.5381 4.91514 19.6004 7.95939 18.6735C11.0096 17.7466 0.381516 13.3674 0.995134 18.5381Z" fill="#3F72AF"/>
<path d="M5.05201 16.5121C5.05201 16.5121 4.62307 16.3194 4.74222 16.1736C5.85031 14.8458 7.53031 15.1582 8.17967 15.4862C9.29967 16.0538 9.56776 16.8349 9.56776 16.8349C9.56776 16.8349 18.6648 15.9237 23.8597 18.1523L9.56776 18.1419L5.55244 18.1523" fill="#3F72AF"/>
<path d="M16.109 12.6532V13.679H10.6698V12.8615L14.0834 9.2685H10.7413V8.24268H15.9719V9.06021L12.5702 12.6532H16.109Z" fill="#3F72AF"/>
<path d="M23.8895 5.61337V6.92038H16.9669V5.88415L21.3099 1.30701H17.0563V0H23.7167V1.03623L19.3856 5.60816H23.8895V5.61337Z" fill="#3F72AF"/>
</g>
</svg>
