<svg width="14" height="15" viewBox="0 0 14 15" fill="none" xmlns="http://www.w3.org/2000/svg">
<path fill-rule="evenodd" clip-rule="evenodd" d="M6.80578 0.00483334C6.93518 -0.00161111 7.06482 -0.00161111 7.19422 0.0048333C7.69377 0.0297116 8.15368 0.175312 8.66638 0.413964C9.16549 0.646291 9.74545 0.982167 10.4792 1.40709L10.5208 1.43118C11.2545 1.85611 11.8345 2.192 12.2847 2.50941C12.747 2.83546 13.1027 3.16218 13.374 3.5837C13.4442 3.69288 13.509 3.8055 13.5682 3.92114C13.7965 4.36753 13.9007 4.83985 13.951 5.40455C14 5.95429 14 6.62605 14 7.4759V7.52406C14 8.37391 14 9.04571 13.951 9.59545C13.9007 10.1601 13.7965 10.6325 13.5682 11.0789C13.5091 11.1945 13.4442 11.3071 13.374 11.4163C13.1027 11.8378 12.747 12.1645 12.2847 12.4906C11.8345 12.808 11.2545 13.1439 10.5208 13.5688L10.4792 13.5929C9.74548 14.0178 9.1655 14.3537 8.66638 14.586C8.15368 14.8247 7.69377 14.9703 7.19422 14.9952C7.06482 15.0016 6.93518 15.0016 6.80578 14.9952C6.30623 14.9703 5.84632 14.8247 5.33362 14.586C4.83451 14.3537 4.25454 14.0178 3.52082 13.5929L3.47918 13.5688C2.7455 13.1439 2.16546 12.808 1.71534 12.4906C1.25295 12.1645 0.89729 11.8378 0.626035 11.4163C0.55577 11.3071 0.490949 11.1945 0.431812 11.0789C0.203515 10.6325 0.099267 10.1601 0.0489638 9.59545C-7.43008e-06 9.0457 -4.10036e-06 8.37394 8.15975e-08 7.52407V7.47594C-4.26276e-06 6.62607 -7.71429e-06 5.9543 0.0489634 5.40455C0.0992665 4.83985 0.203515 4.36753 0.431811 3.92114C0.490948 3.8055 0.555769 3.69289 0.626035 3.5837C0.897289 3.16218 1.25295 2.83546 1.71534 2.50941C2.16549 2.192 2.74547 1.85612 3.47922 1.43119L3.52076 1.40713C4.25451 0.982189 4.8345 0.646297 5.33362 0.413964C5.84632 0.175312 6.30623 0.0297117 6.80578 0.00483334ZM7.5109 4.76689C7.5109 4.48387 7.28217 4.25443 7.00002 4.25443C6.71786 4.25443 6.48913 4.48387 6.48913 4.76689V10.2331C6.48913 10.5161 6.71786 10.7456 7.00002 10.7456C7.28217 10.7456 7.5109 10.5161 7.5109 10.2331V4.76689ZM5.46736 5.45017C5.46736 5.16715 5.23863 4.93771 4.95648 4.93771C4.67432 4.93771 4.44559 5.16715 4.44559 5.45017L4.44559 9.54984C4.44559 9.83286 4.67432 10.0623 4.95648 10.0623C5.23863 10.0623 5.46736 9.83286 5.46736 9.54984V5.45017ZM9.55444 5.45017C9.55444 5.16715 9.32571 4.93771 9.04356 4.93771C8.7614 4.93771 8.53267 5.16715 8.53267 5.45017V9.54984C8.53267 9.83286 8.7614 10.0623 9.04356 10.0623C9.32571 10.0623 9.55444 9.83286 9.55444 9.54984V5.45017ZM3.42382 6.81672C3.42382 6.5337 3.19509 6.30427 2.91294 6.30427C2.63078 6.30427 2.40205 6.5337 2.40205 6.81672V8.18328C2.40205 8.4663 2.63078 8.69574 2.91294 8.69574C3.19509 8.69574 3.42382 8.4663 3.42382 8.18328V6.81672ZM11.598 6.81672C11.598 6.5337 11.3693 6.30427 11.0871 6.30427C10.8049 6.30427 10.5762 6.5337 10.5762 6.81672V8.18328C10.5762 8.4663 10.8049 8.69574 11.0871 8.69574C11.3693 8.69574 11.598 8.4663 11.598 8.18328V6.81672Z" fill="#E7703D"/>
</svg>
